<svg xmlns="http://www.w3.org/2000/svg" width="17" height="17" viewBox="0 0 17 17" fill="none">
  <g clip-path="url(#clip0_1108_184342)">
    <ellipse cx="8.5" cy="15" rx="8.5" ry="2" fill="black" fill-opacity="0.1"/>
    <path d="M15.6079 6.88529C15.6291 6.73654 15.6397 6.54529 15.6079 6.36467C15.5866 6.23717 15.5441 6.12029 15.4697 6.01404V6.00342C15.4804 6.00342 15.5016 6.00342 15.5122 6.01404C15.5335 6.03529 15.5547 6.07779 15.576 6.13092C15.6504 6.31154 15.7247 6.64092 15.5972 7.17217C15.5972 7.18279 15.5972 7.19342 15.5866 7.20404C15.5866 7.20404 15.5547 7.20404 15.5547 7.16154C15.576 7.10842 15.5972 7.01279 15.6185 6.89592L15.6079 6.88529Z" fill="#84716F"/>
    <path d="M16.925 13.8552C16.925 13.919 16.9038 13.919 16.8506 13.9615C16.8081 13.9933 11.655 16.1077 11.1663 16.2671H11.145C11.0706 16.2671 10.8688 16.2246 10.7519 15.3958C10.6244 14.5033 10.8369 13.4408 11.3575 13.2602L11.4425 13.2283C11.4425 13.2283 11.6656 13.1433 11.8144 13.0796C11.8356 13.0796 11.8781 13.0796 11.8994 13.0796C11.9419 13.0902 11.9738 13.0902 12.0163 13.0796V13.1115C11.8888 13.154 11.7719 13.1965 11.6763 13.2283C11.5488 13.2708 11.3363 13.3133 11.2194 13.4408C11.0813 13.5683 10.8475 13.9296 10.8263 14.854C10.805 15.959 11.0281 16.1396 11.0494 16.1502C11.1025 16.2033 11.1769 16.1821 11.1875 16.1715C11.2938 16.129 13.7163 15.1621 14.4706 14.8433C15.055 14.6202 16.6594 13.9508 16.9038 13.834L16.925 13.8552Z" fill="#C125E8"/>
    <path d="M16.8291 11.3796C16.8291 11.3796 16.861 11.3796 16.861 11.4009C16.861 11.4328 16.861 11.4753 16.8397 11.4965C16.7866 11.5284 16.691 11.5603 16.6804 11.5603C16.6272 11.5815 13.3441 12.6971 12.0479 13.1328V13.1009C12.0904 13.069 12.1541 13.0371 12.2179 13.0159C13.0997 12.7078 14.5872 12.1553 15.6497 11.7728C16.1172 11.624 16.6485 11.454 16.8397 11.3796H16.8291Z" fill="#C125E8"/>
    <path d="M16.8187 13.802C16.8187 13.802 16.8505 13.8339 16.8187 13.8551C16.4787 14.0145 14.9912 14.6201 14.4599 14.8539C13.748 15.1301 11.6974 15.9376 11.1768 16.1395C11.1768 16.1395 11.1768 16.1395 11.1662 16.1395C11.1449 16.1395 11.1237 16.1183 11.0918 16.0651C11.0918 16.0545 11.0918 16.0333 11.1024 16.0226L16.5743 13.8551C16.6699 13.8233 16.7443 13.802 16.7655 13.802C16.7762 13.802 16.7974 13.802 16.808 13.802H16.8187Z" fill="#C125E8"/>
    <path d="M16.7018 13.7171C16.7018 13.7171 16.7018 13.7384 16.6911 13.749C16.6486 13.7702 16.5743 13.8021 16.4786 13.8552L11.0599 15.9484C11.0599 15.9484 11.0386 15.9484 11.028 15.9377C11.0068 15.8952 10.9961 15.8315 10.9749 15.7677C10.9749 15.7677 10.9961 15.7677 11.0068 15.7677C11.028 15.7677 11.0599 15.7465 11.0918 15.7359C11.1555 15.7146 11.2299 15.6934 11.3043 15.6615C11.4636 15.6084 11.6655 15.534 11.8674 15.4596C12.1436 15.364 12.3986 15.2684 12.5899 15.2046C12.7811 15.1409 12.8874 15.0984 12.8874 15.0877C12.8874 15.0877 12.7705 15.1196 12.5793 15.1727C12.3986 15.2365 12.1436 15.3215 11.8568 15.4277C11.6443 15.5021 11.453 15.5765 11.2936 15.6296C11.2086 15.6615 11.1449 15.6827 11.0811 15.7146C11.0493 15.7252 11.0174 15.7359 10.9961 15.7465C10.9855 15.7465 10.9643 15.7465 10.9643 15.7252C10.9324 15.5765 10.9111 15.3746 10.9111 15.0984C10.9111 15.0877 10.9111 15.0771 10.9324 15.0771C11.028 15.0665 11.283 14.9815 11.5805 14.8859C11.9524 14.769 12.2605 14.6734 12.2499 14.6415C12.2499 14.6096 11.9311 14.6946 11.5593 14.8115C11.283 14.8965 11.0493 14.9815 10.943 15.0346C10.9218 15.0346 10.9111 15.0346 10.9111 15.0134C10.9111 14.9709 10.9111 14.939 10.9111 14.8965C10.9111 14.7584 10.9111 14.6415 10.9324 14.5352C10.9324 14.5246 10.9324 14.514 10.9536 14.514C11.0493 14.4927 11.2724 14.4184 11.5486 14.3227C11.8993 14.2059 12.1755 14.1102 12.1755 14.089C12.1755 14.0571 11.878 14.1421 11.5274 14.259C11.283 14.344 11.0811 14.4184 10.9749 14.4715C10.9536 14.4715 10.943 14.4715 10.943 14.4502C10.9749 14.1952 11.028 14.0146 11.0811 13.8765C11.0811 13.8765 11.0811 13.8659 11.1024 13.8659C11.1768 13.8446 11.3255 13.7915 11.4955 13.7384C11.7399 13.6534 11.9311 13.5896 11.9205 13.5577C11.9205 13.5259 11.708 13.5896 11.4743 13.6746C11.3574 13.7171 11.2618 13.749 11.1874 13.7915C11.1661 13.7915 11.1449 13.7809 11.1555 13.7596C11.2086 13.664 11.2511 13.6109 11.283 13.579C11.2936 13.579 11.3468 13.5152 11.5168 13.4409C11.5593 13.4302 11.6549 13.3984 11.7611 13.3559C11.9949 13.2709 12.3986 13.1327 12.8661 12.9734C14.2793 12.4952 16.3511 11.8046 16.6593 11.709C16.6805 11.709 16.6911 11.709 16.6911 11.7409C16.6911 11.794 16.6699 11.8896 16.6593 12.0171C16.6593 12.0171 16.6593 12.0384 16.638 12.0384C16.638 12.0384 16.6168 12.0384 16.6061 12.0384C16.4468 12.0809 16.0324 12.219 15.5543 12.389C14.938 12.6015 14.4386 12.7927 14.4493 12.814C14.4493 12.8352 14.9593 12.6546 15.5649 12.4421C16.043 12.2721 16.4468 12.134 16.6061 12.0702C16.6274 12.0702 16.638 12.0702 16.638 12.0915C16.6168 12.2509 16.6061 12.4527 16.5955 12.6759C16.5955 12.6865 16.5955 12.6971 16.5743 12.6971C16.4893 12.7077 16.3299 12.7609 16.1493 12.8246C15.8943 12.9202 15.6818 13.0052 15.6924 13.0371C15.6924 13.069 15.9155 12.984 16.1705 12.8884C16.3299 12.8352 16.4786 12.7821 16.553 12.7502C16.5743 12.7502 16.5849 12.7502 16.5849 12.7715C16.5849 12.9521 16.5849 13.1434 16.6061 13.3346C16.6061 13.3452 16.6061 13.3559 16.5849 13.3665C16.4574 13.409 16.043 13.5471 15.5755 13.7384C14.9911 13.9615 14.5236 14.1421 14.5343 14.1634C14.5343 14.1846 15.0124 13.9934 15.5861 13.7809C16.0536 13.6002 16.4468 13.4515 16.5849 13.3984C16.5955 13.3984 16.6061 13.3984 16.6061 13.4196C16.6061 13.4621 16.6061 13.494 16.6274 13.5365C16.6274 13.5471 16.6274 13.5577 16.6061 13.5684C16.5424 13.5896 16.3724 13.6427 16.1811 13.7171C15.9368 13.8127 15.7349 13.8977 15.7349 13.9084C15.7349 13.919 15.9368 13.8446 16.1918 13.749C16.383 13.6746 16.5424 13.6215 16.6061 13.5896C16.6168 13.5896 16.638 13.5896 16.638 13.6109C16.6486 13.6746 16.6593 13.7384 16.6805 13.8021L16.7018 13.7171ZM15.9155 12.7502C16.2874 12.6121 16.5955 12.5059 16.5849 12.4846C16.5849 12.474 16.2768 12.5802 15.8943 12.7077C15.5224 12.8459 15.2143 12.9627 15.2249 12.9734C15.2249 12.984 15.533 12.8777 15.9049 12.7396L15.9155 12.7502ZM14.7361 12.899C15.4693 12.6334 16.0536 12.4315 16.0536 12.4102C16.0536 12.389 15.4586 12.6015 14.7255 12.8565C13.9924 13.1221 13.408 13.3346 13.4186 13.3559C13.4186 13.3771 14.0136 13.154 14.7468 12.899H14.7361ZM14.598 14.2802C14.9805 14.1421 15.2886 14.0252 15.278 14.0146C15.278 14.004 14.9593 14.1102 14.5874 14.2484C14.2049 14.3865 13.8968 14.514 13.9074 14.5246C13.9074 14.5352 14.2155 14.4184 14.598 14.2802ZM12.5368 14.1846C13.3443 13.919 13.9924 13.7065 13.9818 13.6852C13.9818 13.664 13.323 13.8765 12.5155 14.1421C11.708 14.4077 11.0599 14.6415 11.0705 14.6521C11.0705 14.6734 11.7293 14.4502 12.5261 14.1846H12.5368ZM12.0799 13.8234C12.6218 13.6321 13.0574 13.494 13.0468 13.4621C13.0468 13.4409 12.6005 13.579 12.0586 13.7702C11.5168 13.9615 11.0811 14.1209 11.0918 14.1421C11.0918 14.1634 11.538 14.004 12.0693 13.8234H12.0799ZM11.8993 14.9921C12.3455 14.8434 12.7068 14.7265 12.6961 14.6946C12.6961 14.6627 12.3243 14.769 11.878 14.9177C11.4318 15.0665 11.0705 15.2046 11.0811 15.2259C11.0811 15.2577 11.453 15.1302 11.8993 14.9815V14.9921Z" fill="#EAEADF"/>
    <path d="M16.5958 11.3052C16.5958 11.3052 16.6383 11.369 16.5958 11.3796L16.0008 11.5815L12.5477 12.7715C12.5477 12.7715 12.5371 12.7715 12.5477 12.7609C13.2383 12.3677 14.5771 11.624 15.5227 11.1034C15.5439 11.1034 15.5652 11.0927 15.5864 11.1034L16.5958 11.3265V11.3052Z" fill="#C125E8"/>
    <path d="M16.3405 9.45641C16.3405 9.45641 16.3405 9.53078 16.3192 9.54141C16.3192 9.54141 16.2236 9.57328 16.0642 9.63703C15.1505 9.96641 12.0055 11.082 11.3786 11.2839C11.3361 11.2945 11.283 11.2733 11.2724 11.2202C11.1874 10.912 11.0386 10.1364 11.2617 9.35016C11.2724 9.30766 11.3255 9.25453 11.368 9.23328C11.4849 9.19078 11.6442 9.13766 11.7505 9.10578C11.7824 9.10578 11.8036 9.10578 11.8036 9.10578C11.8461 9.10578 11.8567 9.10578 11.8886 9.10578C11.9736 9.07391 12.1224 8.99953 12.388 8.88266C12.9405 8.70203 14.4917 8.21328 15.4799 7.89453C15.8624 7.76703 16.1705 7.67141 16.2874 7.62891C16.3086 7.66078 16.298 7.72453 16.2874 7.72453C16.2874 7.72453 16.2342 7.73516 16.2024 7.75641C15.5011 7.97953 11.9417 9.12703 11.4424 9.30766C11.3999 9.31828 11.3361 9.35016 11.3255 9.38203C11.2511 9.62641 11.1236 10.1683 11.3255 11.1352C11.3255 11.167 11.3999 11.1989 11.4317 11.1883C11.963 11.0077 15.9474 9.60516 16.3299 9.46703L16.3405 9.45641Z" fill="#55AA59"/>
    <path d="M16.3199 9.4247L11.4536 11.1141C11.4536 11.1141 11.4218 11.1141 11.4218 11.0928C11.4218 11.0822 11.4218 11.0609 11.4111 11.0397C12.9943 10.4341 15.7568 9.5097 16.118 9.39282C16.1818 9.40345 16.288 9.39282 16.3199 9.4247Z" fill="#55AA59"/>
    <path d="M16.0862 9.70081C16.1712 9.96644 16.1712 10.3383 16.1499 10.5189C16.1499 10.5933 16.0968 10.6464 16.0543 10.6783C16.033 10.6889 16.0118 10.7102 15.9905 10.7208C15.9905 10.7208 15.9905 10.7208 15.9799 10.7208C15.6399 10.8908 11.9105 12.9627 11.8893 12.9521C10.9649 12.7927 2.48617 11.1246 0.169922 10.6783V10.6146L11.8574 12.8777C11.8787 12.8777 11.8999 12.8671 11.9105 12.8564C11.9212 12.8564 11.9318 12.8564 11.9424 12.8458C12.0168 12.8033 12.208 12.6971 12.4843 12.5483C14.3012 11.5708 15.9905 10.6571 16.0437 10.5721C16.1287 10.4127 16.118 9.88144 16.0012 9.71144C16.0224 9.71144 16.0543 9.70081 16.0755 9.69019L16.0862 9.70081Z" fill="#332E2D"/>
    <path d="M16.1065 9.26519C16.1065 9.26519 16.1065 9.31831 16.1065 9.35019C15.9259 9.41394 11.7821 10.8377 11.389 10.9864C11.3678 10.8802 11.3359 10.7102 11.3146 10.5083C11.3784 10.5083 11.5165 10.4552 11.6759 10.4021C11.8884 10.3383 12.0584 10.2746 12.0584 10.2533C12.0584 10.2427 11.8778 10.2958 11.6653 10.3596C11.5059 10.4127 11.3678 10.4552 11.304 10.4764C11.2828 10.2852 11.2828 10.0621 11.304 9.86019C11.3359 9.86019 11.389 9.86019 11.4528 9.83894C11.5484 9.81769 11.6121 9.79644 11.6121 9.78581C11.6121 9.77519 11.5378 9.78581 11.4421 9.80706C11.389 9.81769 11.3359 9.82831 11.304 9.83894C11.3253 9.69019 11.3571 9.54144 11.4209 9.42456C11.4209 9.40331 11.5271 9.35019 11.5484 9.33956C11.9521 9.21206 15.2565 8.10706 16.0959 7.83081C16.0959 7.87331 16.0853 7.93706 16.0746 8.04331C16.0746 8.04331 15.7028 8.16019 15.3096 8.28769C14.8846 8.42581 14.5446 8.53206 14.5446 8.55331C14.5446 8.56394 14.8953 8.45769 15.3203 8.31956C15.7134 8.19206 16.0321 8.08581 16.0746 8.05394C16.0746 8.12831 16.064 8.23456 16.064 8.34081C16.0109 8.34081 15.7665 8.43644 15.4796 8.53206C15.1503 8.64894 14.8846 8.73394 14.8953 8.75519C14.8953 8.76581 15.1715 8.68081 15.4903 8.57456C15.7771 8.46831 16.0215 8.38331 16.064 8.35144C16.064 8.58519 16.064 8.89331 16.0853 9.25456C15.979 9.27581 15.5434 9.42456 15.044 9.59456C14.449 9.78581 13.9709 9.94519 13.9815 9.95581C13.9815 9.96644 14.4703 9.81769 15.0546 9.62644C15.5646 9.45644 15.979 9.31831 16.0959 9.26519H16.1065ZM15.3734 9.09519C15.7665 8.96769 16.0853 8.85081 16.0853 8.84019C16.0853 8.82956 15.7559 8.93581 15.3628 9.06331C14.9696 9.19081 14.6403 9.29706 14.6509 9.31831C14.6509 9.32894 14.9803 9.23331 15.3734 9.10581V9.09519ZM13.9603 9.38206C14.959 9.04206 15.7771 8.76581 15.7665 8.74456C15.7665 8.72331 14.9484 8.99956 13.9496 9.33956C12.9509 9.67956 12.1328 9.94519 12.1434 9.96644C12.1434 9.98769 12.9615 9.72206 13.9709 9.39269L13.9603 9.38206ZM13.2165 10.1152C14.0771 9.81769 14.7678 9.57331 14.7678 9.55206C14.7678 9.53081 14.0665 9.76456 13.2059 10.0727C12.3453 10.3702 11.6546 10.6252 11.6653 10.6464C11.6653 10.6677 12.3665 10.4127 13.2165 10.1152ZM14.0028 8.92519C14.2153 8.86144 14.3853 8.79769 14.3853 8.78706C14.3853 8.77644 14.2046 8.82956 13.9921 8.89331C13.7796 8.95706 13.6096 9.01019 13.6096 9.02081C13.6096 9.03144 13.7903 8.98894 14.0028 8.92519ZM11.5696 9.69019C11.6759 9.66894 11.7715 9.63706 11.7609 9.62644C11.7609 9.61581 11.6653 9.62644 11.559 9.65831C11.4528 9.67956 11.3571 9.70081 11.3571 9.71144C11.3571 9.72206 11.4528 9.71144 11.559 9.69019H11.5696ZM11.6334 9.62644C11.6971 9.60519 11.7396 9.59456 11.7396 9.57331C11.7396 9.56269 11.6865 9.57331 11.6228 9.59456C11.559 9.61581 11.5165 9.61581 11.5165 9.63706C11.5165 9.64769 11.5696 9.63706 11.6334 9.63706V9.62644Z" fill="#EAEADF"/>
    <path d="M15.9798 9.73267C16.0754 9.87079 16.1073 10.4127 16.0223 10.572C15.9586 10.6677 13.5254 11.9745 12.4842 12.5377C12.2079 12.6864 12.0061 12.7927 11.9423 12.8352C11.9423 12.8352 11.9211 12.8352 11.9104 12.8458C11.8998 12.8458 11.8786 12.8458 11.8573 12.867L0.212305 10.6145H0.15918L0.35043 10.5827C5.24855 11.4858 11.8361 12.782 11.8361 12.782C11.8679 12.7608 15.3423 10.8483 15.8417 10.5508C15.8842 10.5189 15.9161 10.4764 15.9373 10.4339C15.9479 10.402 15.9586 10.3702 15.9586 10.3277C15.9692 10.232 15.9692 10.1258 15.9586 10.0302C15.9479 9.88142 15.9267 9.77517 15.9161 9.75392C15.9161 9.75392 15.9161 9.75392 15.9267 9.75392C15.9373 9.75392 15.9586 9.74329 15.9798 9.73267Z" fill="#332E2D"/>
    <path d="M15.9263 10.0514C15.9263 10.147 15.9263 10.2426 15.9263 10.3276C15.8626 10.3489 15.6926 10.4445 15.5013 10.5508C15.257 10.6889 15.0657 10.8058 15.0657 10.8164C15.0657 10.827 15.2676 10.7208 15.512 10.5826C15.6926 10.487 15.852 10.402 15.9157 10.3595C15.9157 10.3808 15.9157 10.402 15.8945 10.4233C15.8838 10.4658 15.852 10.4976 15.8095 10.5189C15.3207 10.8058 11.9951 12.5483 11.8145 12.7076C11.8357 12.6545 11.8782 12.3145 11.8676 12.0276C11.9207 12.0064 12.0376 11.9426 12.1863 11.8576C12.367 11.762 12.5263 11.677 12.5157 11.6664C12.5157 11.6558 12.3563 11.7301 12.1651 11.8258C12.027 11.9001 11.8995 11.9745 11.857 12.0064C11.857 11.8895 11.8357 11.7833 11.8145 11.7089L14.9701 10.1683L14.9382 10.1895C14.9382 10.2001 15.172 10.0939 15.4588 9.9664C15.6182 9.89202 15.767 9.82827 15.852 9.77515C15.8626 9.81765 15.8838 9.9239 15.8945 10.0408C15.8307 10.0726 15.6607 10.1576 15.4801 10.2533C15.2357 10.3914 15.0445 10.5083 15.0445 10.5189C15.0445 10.5295 15.2463 10.4233 15.4907 10.2851C15.6713 10.1895 15.8307 10.1045 15.8945 10.062L15.9263 10.0514ZM15.1507 10.6251C15.3951 10.487 15.597 10.3808 15.5863 10.3701C15.5757 10.3595 15.3738 10.4551 15.1295 10.5933C14.8851 10.7314 14.6938 10.8483 14.6938 10.8589C14.6938 10.8695 14.8957 10.7633 15.1401 10.6251H15.1507ZM14.8001 10.5295C15.1401 10.3489 15.427 10.2001 15.4163 10.1895C15.4057 10.1789 15.1295 10.317 14.7895 10.4976C14.4495 10.6783 14.1732 10.8376 14.1732 10.8483C14.1732 10.8589 14.4601 10.7101 14.8001 10.5295ZM13.6207 11.3689C14.3538 10.9545 14.9595 10.6251 14.9488 10.6039C14.9488 10.5933 14.3432 10.9226 13.5995 11.337C12.8557 11.7514 12.2713 12.0914 12.2713 12.1126C12.2713 12.1233 12.877 11.7833 13.6101 11.3689H13.6207ZM13.812 11.4326C14.2476 11.1883 14.5982 10.997 14.5876 10.9864C14.5876 10.9758 14.2263 11.167 13.7907 11.4008C13.3551 11.6451 13.0151 11.847 13.0151 11.8576C13.0151 11.8683 13.3763 11.677 13.8013 11.4326H13.812Z" fill="#EAEADF"/>
    <path d="M15.5227 7.46948C15.5227 7.46948 16.1177 7.57573 16.2664 7.60761C16.1602 7.65011 15.8733 7.74573 15.5014 7.86261C14.6302 8.14948 13.2808 8.56386 12.707 8.75511C13.5464 8.37261 14.832 7.78823 15.4908 7.49073C15.5014 7.49073 15.512 7.48011 15.5333 7.46948H15.5227Z" fill="#55AA59"/>
    <path d="M15.5227 5.87573C15.5864 5.98198 15.7458 6.30073 15.7458 6.70448C15.7458 7.01261 15.6502 7.26761 15.6183 7.34198C15.6183 7.34198 15.6183 7.36323 15.5971 7.36323C15.0658 7.63948 12.2077 8.88261 11.8783 9.03136C11.8783 9.01011 11.8783 8.96761 11.8571 8.90386C12.0802 8.80823 15.0446 7.51198 15.5546 7.29948C15.5971 7.27823 15.6077 7.22511 15.6183 7.18261C15.7246 6.73636 15.6927 6.47073 15.6396 6.27948C15.6289 6.22636 15.6077 6.16261 15.5864 6.12011C15.5546 6.03511 15.5121 5.97136 15.5014 5.95011C15.5014 5.95011 15.4908 5.95011 15.4802 5.95011C14.8427 6.23698 12.0377 7.37386 11.8252 7.45886C11.8252 7.42698 11.8252 7.40573 11.8252 7.38448C11.8252 7.36323 11.8252 7.35261 11.8252 7.35261C11.8252 7.35261 11.8358 7.31011 11.8464 7.28886C11.8464 7.28886 11.8464 7.27823 11.8571 7.27823C12.0164 7.20386 14.2477 6.41761 15.4589 5.87573C15.4802 5.87573 15.5014 5.87573 15.5121 5.89698L15.5227 5.87573Z" fill="#84716F"/>
    <path d="M15.5759 6.37516C15.5971 6.49203 15.6078 6.61953 15.5971 6.73641C15.5759 6.73641 15.4909 6.76828 15.374 6.82141C15.2571 6.87453 15.1509 6.90641 15.1615 6.92766C15.1615 6.93828 15.2678 6.90641 15.3846 6.85328C15.4909 6.81078 15.5653 6.76828 15.5865 6.74703C15.5865 6.78953 15.5865 6.84266 15.5759 6.88516C15.544 6.88516 15.4165 6.94891 15.2571 7.01266C15.0765 7.08703 14.9384 7.15078 14.9384 7.16141C14.9384 7.17203 15.0871 7.11891 15.2678 7.04453C15.4165 6.98078 15.5334 6.92766 15.5759 6.89578C15.5546 7.04453 15.5228 7.15078 15.5015 7.16141C15.3846 7.24641 13.3978 8.08578 12.4628 8.50016C12.2184 8.60641 12.0165 8.70203 11.9209 8.74453C11.9421 8.68078 11.9528 8.61703 11.9634 8.55328C12.0378 8.53203 12.2609 8.43641 12.5159 8.33016C12.8346 8.19203 13.0896 8.07516 13.079 8.06453C13.079 8.05391 12.8134 8.16016 12.5053 8.29828C12.2609 8.40453 12.0378 8.50016 11.9634 8.53203C11.9634 8.48953 11.974 8.44703 11.9846 8.41516C12.0484 8.39391 12.144 8.35141 12.2609 8.30891C12.4415 8.23453 12.5796 8.17078 12.5796 8.14953C12.5796 8.13891 12.4309 8.20266 12.2503 8.27703C12.144 8.31953 12.0484 8.36203 11.9846 8.39391C12.0059 8.25578 12.0165 8.12828 12.0165 8.00078C12.0165 7.89453 12.0165 7.79891 12.0165 7.71391C12.0696 7.70328 12.1865 7.66078 12.3246 7.59703C12.5053 7.52266 12.6434 7.45891 12.6434 7.43766C12.6434 7.42703 12.4946 7.49078 12.314 7.56516C12.1759 7.61828 12.0696 7.67141 12.0165 7.69266C12.0165 7.60766 11.9953 7.54391 11.974 7.49078L15.4059 6.03516H15.4271C15.4696 6.08828 15.5015 6.13078 15.5121 6.18391V6.19453C15.4909 6.22641 15.4271 6.25828 15.3315 6.30078C15.1615 6.36453 14.9065 6.44953 14.6196 6.56641C14.1203 6.76828 13.7059 6.93828 13.7165 6.95953C13.7165 6.98078 14.1309 6.82141 14.6409 6.61953C14.8853 6.52391 15.1509 6.39641 15.3421 6.32203C15.4059 6.29016 15.4696 6.27953 15.5121 6.25828C15.5334 6.25828 15.5546 6.25828 15.5653 6.29016C15.5653 6.31141 15.5759 6.33266 15.5865 6.35391C15.544 6.36453 15.4165 6.41766 15.2784 6.48141C15.0978 6.55578 14.9596 6.61953 14.9596 6.63016C14.9596 6.64078 15.1084 6.58766 15.289 6.51328C15.4271 6.44953 15.544 6.39641 15.5865 6.37516H15.5759ZM15.1934 7.17203C15.3846 7.08703 15.544 7.00203 15.544 6.99141C15.544 6.98078 15.3846 7.05516 15.1828 7.14016C14.9809 7.22516 14.8215 7.29953 14.8321 7.31016C14.8321 7.32078 15.0021 7.25703 15.1934 7.17203ZM14.3328 7.11891C14.7259 6.95953 15.034 6.81078 15.0234 6.78953C15.0234 6.76828 14.7046 6.90641 14.3115 7.06578C13.9184 7.22516 13.6103 7.35266 13.6103 7.37391C13.6103 7.39516 13.9396 7.26766 14.3221 7.10828L14.3328 7.11891ZM13.6953 7.59703C14.1946 7.38453 14.609 7.19328 14.5984 7.17203C14.5984 7.15078 14.184 7.33141 13.6846 7.55453C13.1853 7.76703 12.7709 7.94766 12.7815 7.95828C12.7815 7.97953 13.1959 7.80953 13.7059 7.59703H13.6953ZM13.249 7.40578C13.6528 7.25703 13.9821 7.11891 13.9715 7.10828C13.9503 7.07641 13.5784 7.18266 13.2278 7.36328C12.8453 7.56516 12.4946 7.62891 12.4946 7.65016C12.4946 7.67141 12.8346 7.55453 13.2384 7.40578H13.249Z" fill="#EAEADF"/>
    <path d="M15.5653 7.20398C15.5653 7.20398 15.5334 7.23586 15.5228 7.24648C15.3953 7.29961 15.1084 7.42711 14.7578 7.57586V7.54398C15.1084 7.38461 15.3847 7.25711 15.4803 7.21461C15.5016 7.21461 15.5228 7.21461 15.5441 7.21461C15.5441 7.21461 15.5547 7.20398 15.5653 7.19336V7.20398Z" fill="#84716F"/>
    <path d="M15.2468 4.35653C15.2893 4.44153 15.4168 4.82403 15.4062 5.16403C15.4062 5.51466 15.2787 5.75903 15.2574 5.80153L11.2305 7.16153C11.2305 7.16153 11.1455 7.19341 11.1031 7.20403C11.1031 7.17216 11.1031 7.15091 11.1031 7.11903C11.1455 7.09778 11.2199 7.07653 11.3049 7.04466C12.0593 6.80028 14.5243 5.99278 15.2149 5.75903C15.2362 5.75903 15.2468 5.73778 15.2574 5.72716C15.2893 5.66341 15.3743 5.41903 15.3637 5.10028C15.3637 5.06841 15.3637 5.03653 15.3637 5.00466C15.3424 4.67528 15.2681 4.54778 15.2149 4.44153C15.2149 4.44153 15.2149 4.44153 15.2043 4.44153C14.9918 4.50528 11.3368 5.59966 10.9862 5.71653C10.9756 5.71653 10.9437 5.72716 10.9118 5.73778C10.9118 5.73778 2.26305 4.29278 1.9018 4.26091H1.89117C1.86992 4.22903 1.88055 4.18653 1.89117 4.16528C2.08242 4.20778 3.14492 4.34591 3.15555 4.34591L10.9224 5.62091C10.9224 5.62091 11.5281 5.48278 11.7512 5.42966C11.9956 5.36591 15.0024 4.45216 15.2681 4.35653C15.2681 4.35653 15.2681 4.35653 15.2787 4.35653H15.2468Z" fill="#EF432B"/>
    <path d="M15.3415 5.78027C15.3415 5.78027 15.4159 5.78027 15.4584 5.80152C15.2884 5.8759 14.8103 6.0884 13.7371 6.50277C13.0678 6.75777 11.9096 7.18277 11.8353 7.20402C11.814 7.20402 11.6759 7.20402 11.5696 7.18277C11.5484 7.18277 11.5484 7.1509 11.5696 7.14027C12.5365 6.8109 14.6934 6.06715 15.3096 5.84402C15.3203 5.82277 15.3309 5.80152 15.3415 5.78027Z" fill="#84716F"/>
    <path d="M15.3205 5.01515C15.3205 5.14265 15.3205 5.28077 15.2993 5.4189H15.2674C15.2674 5.4189 15.2674 5.38702 15.2674 5.3764C15.2993 5.17452 15.2993 4.87702 15.1611 4.49452C15.193 4.4839 15.2993 4.6964 15.3205 5.00452V5.01515Z" fill="#EF432B"/>
    <path d="M15.268 5.41896H15.2998C15.2786 5.51458 15.2573 5.61021 15.2148 5.70583C15.2148 5.70583 15.2042 5.72708 15.1936 5.72708C14.5348 5.95021 11.528 6.98083 11.0817 7.08708C11.0711 7.08708 11.0605 7.08708 11.0498 7.08708C11.0498 7.08708 6.22609 6.29021 3.63359 5.84396C2.71984 5.68458 2.08234 5.57833 2.03984 5.5677C1.99734 5.55708 1.96547 5.53583 1.93359 5.5252L2.12484 5.50395V5.53583C2.12484 5.53583 2.14609 5.53583 2.15672 5.53583C2.96422 5.70583 6.87422 6.30083 9.17984 6.71521C9.38172 6.75771 9.57297 6.78958 9.75359 6.82146C10.4442 6.93833 10.9117 7.01271 10.9861 7.02333H11.0073C11.528 6.83208 15.1192 5.66333 15.1723 5.68458C15.1723 5.68458 15.2361 5.58896 15.268 5.39771V5.41896Z" fill="#EF432B"/>
    <path d="M15.129 4.53699C15.1821 4.62199 15.3096 5.01512 15.2459 5.38699C15.2352 5.48262 15.2034 5.57824 15.1502 5.67387C15.044 5.68449 13.1846 6.26887 11.0065 7.00199C11.0065 6.95949 11.0171 6.87449 11.0277 6.76824C11.0596 6.76824 11.1552 6.73637 11.3784 6.67262C11.5802 6.60887 12.7596 6.20512 12.7596 6.18387C12.7596 6.17324 11.5696 6.57699 11.3677 6.63012C11.2084 6.68324 11.0809 6.71512 11.0277 6.73637C11.0277 6.57699 11.0277 6.35387 11.0065 6.09887C11.0065 6.00324 10.9852 5.90762 10.9746 5.81199C11.559 5.61012 14.4809 4.72824 15.1077 4.52637C15.1077 4.52637 15.1184 4.52637 15.129 4.52637V4.53699ZM14.6402 5.37637C14.9802 5.28074 15.2459 5.19574 15.2459 5.17449C15.2459 5.16387 14.9696 5.23824 14.6296 5.34449C14.2896 5.44012 14.024 5.51449 14.024 5.53574C14.024 5.54637 14.3002 5.48262 14.6402 5.37637ZM14.4915 4.97262C14.6934 4.90887 14.8527 4.85574 14.8527 4.84512C14.8527 4.83449 14.6827 4.87699 14.4809 4.94074C14.279 5.00449 14.1196 5.04699 14.1196 5.05762C14.1196 5.06824 14.2896 5.03637 14.4915 4.97262ZM14.0771 5.81199C14.2684 5.74824 14.4277 5.69512 14.4277 5.68449C14.4277 5.67387 14.2684 5.72699 14.0665 5.78012C13.8752 5.84387 13.7052 5.88637 13.7159 5.90762C13.7159 5.91824 13.8859 5.87574 14.0771 5.82262V5.81199ZM12.9827 5.72699C13.3227 5.63137 13.5884 5.54637 13.5884 5.52512C13.5884 5.51449 13.3121 5.58887 12.9721 5.69512C12.6321 5.79074 12.3665 5.86512 12.3665 5.88637C12.3665 5.89699 12.6427 5.83324 12.9827 5.72699ZM12.2284 5.78012C12.579 5.68449 12.8552 5.59949 12.8552 5.58887C12.8552 5.57824 12.5684 5.65262 12.2284 5.74824C11.8777 5.84387 11.6015 5.91824 11.6015 5.92887C11.6015 5.93949 11.8884 5.87574 12.239 5.78012H12.2284Z" fill="#EAEADF"/>
    <path d="M14.715 4.27148C14.715 4.27148 15.2038 4.34586 15.1932 4.34586L12.8663 5.03648C12.8663 5.03648 12.3775 5.18523 11.8994 5.32336C12.3988 5.15336 13.9607 4.55836 14.715 4.27148Z" fill="#EF432B"/>
    <path d="M15.0865 4.01644C15.0865 4.02706 15.0865 4.03769 15.0865 4.04831C15.0865 4.04831 15.0865 4.05894 15.0759 4.05894C14.8847 4.12269 11.8565 5.29144 11.8034 5.29144C11.8034 5.29144 11.7822 5.29144 11.7609 5.29144C11.7609 5.29144 11.7397 5.29144 11.729 5.29144C11.5484 5.24894 11.474 4.61144 11.4528 4.39894C11.4528 4.94081 11.5272 5.16394 11.5803 5.24894V5.25956C10.3265 5.12144 2.57029 4.15456 2.57029 4.15456C2.57029 4.15456 2.47467 4.14394 2.43217 4.10144C2.37904 4.06956 2.28342 3.98456 2.24092 3.48519C2.19842 2.95394 2.34717 2.50769 2.41092 2.45456C2.45342 2.41206 2.95279 2.30581 3.19717 2.25269C3.21842 2.25269 3.26092 2.25269 3.28217 2.25269C3.31404 2.25269 3.35654 2.25269 3.38842 2.25269C3.42029 2.25269 3.45217 2.25269 3.47342 2.25269C4.02592 2.35894 4.84404 2.51831 5.71529 2.68831C5.73654 2.68831 5.72592 2.72019 5.71529 2.72019C4.67404 2.60331 2.91029 2.42269 2.86779 2.42269H2.70842V2.44394C3.02717 2.47581 5.52404 2.73081 6.46967 2.84769C6.46967 2.84769 6.49092 2.84769 6.50154 2.84769C8.21217 3.17706 9.91217 3.50644 10.0397 3.51706C10.1884 3.53831 10.199 3.52769 10.2947 3.51706C10.3159 3.51706 10.5815 3.46394 10.9853 3.37894C11.3253 3.42144 11.5484 3.44269 11.5803 3.44269C11.5909 3.44269 11.6015 3.46394 11.5909 3.47456C11.4953 3.62331 11.474 3.79331 11.4634 3.92081C11.4634 3.94206 11.4847 3.94206 11.4847 3.92081C11.5272 3.64456 11.6653 3.46394 11.7184 3.44269C11.7822 3.42144 13.5778 2.89019 13.9178 2.79456C14.0453 2.77331 14.1622 2.75206 14.2684 2.73081C14.2684 2.73081 14.279 2.74144 14.2684 2.74144C13.599 2.93269 11.8034 3.46394 11.729 3.51706C11.644 3.57019 11.5165 3.93144 11.5484 4.39894C11.5697 4.77081 11.644 5.00456 11.7184 5.14269C11.7397 5.17456 11.7822 5.19581 11.8247 5.18519C12.2709 5.03644 14.7465 4.12269 15.1078 4.00581L15.0865 4.01644Z" fill="#F9EDCD"/>
    <path d="M9.95506 1.95521C9.84881 2.21021 9.87006 2.61396 9.90194 2.68834C9.88069 2.21021 9.95506 1.81709 10.1888 1.75334C10.3801 1.70021 14.5451 1.17959 15.0126 1.11584C15.0126 1.11584 15.0126 1.13709 15.0126 1.14771C14.4813 1.21147 10.9857 1.64709 10.2738 1.76396C10.1888 1.77459 10.1038 1.82771 10.0719 1.91271C9.97631 2.15709 9.94444 2.59272 9.97631 2.81584C10.0082 3.00709 10.0401 3.13459 10.0719 3.20896C10.1463 3.38959 10.2207 3.34709 10.2738 3.35771C10.3163 3.37896 13.5463 2.75209 15.0551 2.46521V2.48646C14.8638 2.51834 10.3588 3.37896 10.2632 3.40021C10.2313 3.40021 10.1994 3.41084 10.1782 3.41084C10.0294 3.38959 9.95506 3.09209 9.92319 2.89021C9.92319 2.89021 9.90194 2.89021 9.91256 2.89021C9.93381 3.19834 10.0082 3.33646 10.0613 3.41084C9.96569 3.40021 2.88944 2.06146 2.83631 2.02959C2.77256 1.99771 2.66631 1.83834 2.63444 1.45584C2.60256 1.08396 2.79381 0.765215 2.80444 0.743965C2.84694 0.71209 2.98506 0.71209 2.99569 0.71209C3.00631 0.71209 7.25631 0.13834 7.75569 0.0639648C7.78756 0.0639648 7.81944 0.0639648 7.85131 0.0639648C8.41444 0.148965 13.9819 0.92459 14.8638 1.05209V1.06271L12.8344 1.30709C12.8344 1.30709 10.8901 1.55146 10.2207 1.65771C10.1888 1.65771 10.1463 1.67896 10.1251 1.70021L3.24006 0.743965H3.22944V0.765215C3.75006 0.828965 9.90194 1.78522 9.96569 1.79584C10.0294 1.79584 9.96569 1.95521 9.96569 1.95521H9.95506Z" fill="#00308E"/>
    <path d="M15.0336 3.98463V3.99525L11.8674 5.13213C11.793 5.164 11.7505 5.164 11.7186 5.11088C11.7186 5.11088 11.7186 5.08963 11.708 5.079L14.938 3.96338C14.9593 3.96338 15.0018 3.974 15.0336 3.98463Z" fill="#F9EDCD"/>
    <path d="M14.9913 10.1047L11.8145 11.6134L0.158828 9.56279L0.126953 9.45654C0.126953 9.45654 0.456328 9.49904 0.636953 9.50967L9.85945 11.1247C9.85945 11.1247 9.85945 11.1247 9.87008 11.1247L9.77445 11.1034L9.93383 11.1353C10.7413 11.3372 11.2513 11.4222 11.2726 11.4222C11.2726 11.4222 11.3045 11.4222 11.3682 11.3903C11.3682 11.3903 11.8038 11.4753 11.8357 11.4753C11.8357 11.4753 14.1095 10.4872 14.6301 10.2215C14.7576 10.179 14.8745 10.1259 14.9913 10.0834V10.1047Z" fill="#332E2D"/>
    <path d="M14.9803 2.45459C14.9803 2.45459 15.0228 2.45459 15.0334 2.46521C14.5128 2.56084 10.3478 3.32584 10.2947 3.31521H10.2734V3.30459C11.9841 2.97521 13.5884 2.67771 14.9803 2.46521V2.45459Z" fill="#5CB4EA"/>
    <path d="M14.6942 2.65639H14.6517C14.7367 2.65639 14.8111 2.63514 14.8748 2.62451C14.8429 2.99639 14.8429 3.37889 14.8642 3.64451C14.8111 3.66576 14.7261 3.68701 14.6304 3.71889C14.4604 3.77201 14.3223 3.81451 14.3329 3.83576C14.3329 3.84639 14.4711 3.81451 14.6411 3.75076C14.7261 3.71889 14.8004 3.69764 14.8536 3.67639C14.8536 3.67639 14.8536 3.67639 14.8642 3.67639C14.8642 3.70826 14.8642 3.74014 14.8642 3.77201C14.7154 3.81451 14.4179 3.92076 14.0886 4.02701C13.8442 4.11201 13.6211 4.18639 13.4617 4.23951C13.3023 4.29264 13.2067 4.33514 13.2067 4.33514C13.2067 4.33514 13.3129 4.31389 13.4723 4.26076C13.6317 4.20764 13.8548 4.13326 14.0992 4.05889C14.4392 3.94201 14.7261 3.84639 14.8748 3.78264C14.8748 3.82514 14.8748 3.85701 14.8854 3.87826L11.6873 4.99389C11.6873 4.97264 11.6767 4.95139 11.6661 4.93014C11.7192 4.91951 11.8467 4.87701 11.9954 4.82389C12.1867 4.74951 12.3461 4.68576 12.3354 4.66451C12.3354 4.65389 12.1761 4.71764 11.9848 4.79201C11.8467 4.84514 11.7192 4.88764 11.6661 4.91951C11.6129 4.73889 11.5917 4.50514 11.5811 4.35639C11.5811 4.18639 11.5811 4.00576 11.6236 3.84639C11.6236 3.84639 11.6342 3.84639 11.6448 3.84639C11.6873 3.83576 11.7617 3.81451 11.8467 3.79326C12.0061 3.75076 12.2186 3.67639 12.4629 3.60201C12.7073 3.52764 12.9198 3.45326 13.0792 3.41076C13.2386 3.35764 13.3342 3.32576 13.3342 3.31514C13.3342 3.31514 13.2279 3.33639 13.0792 3.37889C12.9198 3.42139 12.6967 3.49576 12.4629 3.57014C12.2186 3.64451 12.0061 3.71889 11.8467 3.77201C11.7617 3.80389 11.6979 3.82514 11.6554 3.83576C11.6873 3.72951 11.7298 3.63389 11.7936 3.57014C12.1017 3.47451 14.6836 2.66701 14.7261 2.64576L14.6942 2.65639ZM14.8429 3.47451C14.7261 3.49576 14.4286 3.59139 14.0886 3.70826C13.8654 3.78264 13.6636 3.84639 13.5148 3.88889C13.3661 3.94201 13.2811 3.97389 13.2811 3.97389C13.2811 3.97389 13.3767 3.95264 13.5254 3.91014C13.6742 3.86764 13.8761 3.80389 14.0992 3.72951C14.4179 3.62326 14.7048 3.53826 14.8217 3.48514C14.8217 3.48514 14.8323 3.48514 14.8429 3.48514V3.47451ZM14.3011 3.16639C14.5986 3.08139 14.8323 2.98576 14.8323 2.96451C14.8323 2.95389 14.5879 3.03889 14.2904 3.13451C13.9929 3.21951 13.7486 3.28326 13.7486 3.29389C13.7486 3.30451 14.0036 3.26201 14.3011 3.16639ZM14.5454 3.41076C14.6092 3.38951 14.6623 3.37889 14.6623 3.35764C14.6623 3.34701 14.6092 3.35764 14.5348 3.37889C14.4711 3.40014 14.4073 3.41076 14.4179 3.42139C14.4179 3.43201 14.4817 3.42139 14.5454 3.42139V3.41076ZM12.8029 3.79326C13.1961 3.67639 13.5148 3.57014 13.5148 3.54889C13.5148 3.53826 13.1961 3.63389 12.7923 3.75076C12.3992 3.86764 12.0804 3.96326 12.0804 3.98451C12.0804 3.99514 12.4098 3.91014 12.8029 3.78264V3.79326ZM12.2186 4.29264C12.2186 4.29264 12.3036 4.26076 12.2929 4.23951C12.2929 4.22889 12.2504 4.23951 12.2079 4.26076C12.1654 4.28201 12.1229 4.29264 12.1229 4.30326C12.1229 4.31389 12.1654 4.30326 12.2186 4.30326V4.29264Z" fill="#EAEADF"/>
    <path d="M14.8641 2.40153C13.4723 2.62466 11.9635 2.92216 10.2316 3.25153C10.221 3.24091 10.2104 3.21966 10.1998 3.19841V3.18778C10.391 3.15591 10.8585 3.06028 11.3898 2.95403C12.1016 2.80528 12.6754 2.67778 12.6648 2.65653C12.6648 2.64591 12.091 2.76278 11.3791 2.91153C10.8479 3.02841 10.391 3.12403 10.1891 3.16653C10.1466 3.08153 10.1148 2.94341 10.0935 2.73091C10.0723 2.48653 10.0829 2.30591 10.1254 2.13591C10.1254 2.13591 10.136 2.13591 10.1466 2.13591C10.1785 2.13591 10.1998 2.12528 10.1891 2.10403C10.1891 2.09341 10.1679 2.10403 10.136 2.10403C10.136 2.10403 10.136 2.10403 10.1254 2.10403C10.136 2.06153 10.1573 2.00841 10.1679 1.96591C10.1998 1.89153 10.2635 1.83841 10.3379 1.82778C10.8904 1.73216 14.0035 1.34966 14.8748 1.24341C14.8641 1.31778 14.8429 1.48778 14.8323 1.68966C14.7366 1.70028 14.5666 1.74278 14.3754 1.78528C14.0885 1.84903 13.8441 1.89153 13.8548 1.90216C13.8548 1.91278 14.0991 1.88091 14.386 1.81716C14.5879 1.77466 14.7579 1.74278 14.8429 1.71091L14.8323 1.72153C14.8323 1.77466 14.8323 1.82778 14.8323 1.89153C14.8323 1.94466 14.8323 1.99778 14.8323 2.04028C14.8323 2.04028 14.6941 2.05091 14.5985 2.07216C14.4498 2.10403 14.3329 2.11466 14.3329 2.13591C14.3329 2.14653 14.4604 2.13591 14.6091 2.11466C14.6941 2.10403 14.7685 2.08278 14.8216 2.07216C14.8216 2.07216 14.8216 2.07216 14.8323 2.07216C14.8323 2.21028 14.8429 2.26341 14.8641 2.39091V2.40153ZM14.3223 1.47716C14.6091 1.43466 14.8323 1.38153 14.8323 1.37091C14.8323 1.36028 14.5985 1.39216 14.3116 1.44528C14.0248 1.48778 13.791 1.53028 13.8016 1.54091C13.8016 1.55153 14.0354 1.53028 14.3223 1.47716ZM14.5879 2.29528C14.726 2.26341 14.811 2.24216 14.811 2.23153C14.811 2.23153 14.726 2.23153 14.5773 2.26341C14.4391 2.29528 14.2373 2.33778 14.0248 2.38028C13.8123 2.43341 13.6104 2.47591 13.4723 2.51841C13.3341 2.55028 13.2491 2.58216 13.2491 2.59278C13.2491 2.59278 13.3341 2.59278 13.4829 2.55028C13.621 2.51841 13.8229 2.47591 14.0354 2.42278C14.2479 2.36966 14.4498 2.32716 14.5879 2.29528ZM12.6329 1.93403C13.791 1.72153 14.7366 1.54091 14.726 1.53028C14.726 1.51966 13.7804 1.68966 12.6223 1.90216C11.4641 2.11466 10.5185 2.28466 10.5291 2.30591C10.5291 2.31653 11.4748 2.15716 12.6329 1.94466V1.93403ZM12.7816 2.52903C13.4616 2.39091 14.0248 2.27403 14.0141 2.25278C14.0141 2.24216 13.4616 2.34841 12.771 2.49716C12.091 2.63528 11.5279 2.74153 11.5279 2.76278C11.5279 2.77341 12.091 2.66716 12.771 2.52903H12.7816ZM12.5691 1.75341C12.7391 1.72153 12.8879 1.70028 12.8879 1.67903C12.8879 1.66841 12.7391 1.67903 12.5691 1.72153C12.3991 1.75341 12.2504 1.77466 12.2504 1.78528C12.2504 1.79591 12.3991 1.78528 12.5691 1.75341ZM11.8041 2.47591C11.9848 2.43341 12.091 2.40153 12.091 2.39091C12.091 2.39091 11.9741 2.41216 11.7935 2.44403C11.6129 2.48653 11.3685 2.53966 11.0816 2.59278C10.8054 2.64591 10.5504 2.68841 10.3698 2.70966C10.1891 2.74153 10.0723 2.75216 10.0723 2.76278C10.0723 2.76278 10.1891 2.76278 10.3698 2.74153C10.5504 2.72028 10.8054 2.67778 11.0816 2.62466C11.3579 2.57153 11.6129 2.51841 11.7935 2.47591H11.8041ZM10.5079 2.91153C10.731 2.86903 10.9116 2.83716 10.9116 2.81591C10.9116 2.79466 10.731 2.83716 10.5079 2.87966C10.2848 2.92216 10.1041 2.94341 10.1041 2.96466C10.1041 2.97528 10.2848 2.96466 10.5079 2.91153Z" fill="#EAEADF"/>
    <path d="M14.7574 7.54395V7.57582C13.7693 8.01145 12.1755 8.7127 11.8887 8.8402V8.81895C11.963 8.78707 12.2074 8.65957 12.4837 8.53207C13.1105 8.25582 14.088 7.84145 14.768 7.54395H14.7574Z" fill="#84716F"/>
    <path d="M13.9604 10.4871L11.8885 11.4114L11.8141 11.4433C11.6972 11.4221 11.6229 11.3689 11.5166 11.3583C12.0266 11.1777 13.3122 10.7314 13.9604 10.4871Z" fill="#332E2D"/>
    <path d="M13.6848 2.84766L13.5573 2.87953C13.5573 2.87953 12.7286 3.10266 11.6554 3.40016C11.6554 3.40016 11.5173 3.40016 11.2729 3.37891C11.2411 3.37891 11.2411 3.33641 11.2729 3.32578C11.9636 3.18766 12.8986 3.00703 13.6742 2.84766H13.6848Z" fill="#F9EDCD"/>
    <path d="M11.995 7.99014C11.995 8.12826 11.9844 8.27701 11.9631 8.39389C11.9525 8.39389 11.9419 8.40451 11.9419 8.41514C11.9419 8.41514 11.9419 8.41514 11.9525 8.41514C11.9525 8.45764 11.9419 8.51076 11.9312 8.54264C11.91 8.63826 11.8994 8.71264 11.8888 8.76576C11.0387 8.57451 8.37187 8.21326 6.215 7.90514C4.96125 7.72451 3.72875 7.49076 2.86813 7.37389C1.795 7.23576 1.46563 7.20389 1.35938 7.20389C1.35938 7.15076 1.47625 6.56639 1.38062 6.07764C4.95062 6.55576 8.425 7.04451 11.825 7.53326L11.8888 7.50139C11.9525 7.62889 11.9738 7.79889 11.9738 7.97951C11.8038 7.94764 10.8369 7.79889 9.67875 7.62889C8.39313 7.43764 7.35188 7.27826 7.35188 7.29951C7.35188 7.31014 8.39313 7.48014 9.67875 7.66076C10.8369 7.83076 11.8038 7.96889 11.9738 7.97951L11.995 7.99014ZM8.17 8.06451C10.125 8.36201 11.7188 8.59576 11.7188 8.57451C11.7188 8.56389 10.1356 8.31951 8.18062 8.02201C6.22563 7.72451 4.63188 7.48014 4.63188 7.50139C4.63188 7.51201 6.215 7.76701 8.17 8.06451ZM3.84562 6.95951C5.13125 7.15076 6.1725 7.29951 6.1725 7.27826C6.1725 7.26764 5.13125 7.10826 3.84562 6.92764C2.56 6.73639 1.51875 6.57701 1.51875 6.59826C1.51875 6.60889 2.56 6.76826 3.84562 6.95951ZM3.50563 7.10826C3.50563 7.10826 3.03813 7.02326 2.46438 6.93826C1.89062 6.85326 1.42313 6.77889 1.42313 6.80014C1.42313 6.81076 1.89062 6.89576 2.46438 6.97014C3.03813 7.04451 3.50563 7.11889 3.51625 7.09764L3.50563 7.10826Z" fill="#EAEADF"/>
    <path d="M11.8782 8.81897V8.84021C11.8782 8.84021 11.8569 8.85084 11.8463 8.86147C11.7188 8.84022 9.04129 8.45771 6.38504 8.07521C4.80191 7.84146 3.53754 7.66084 2.62379 7.52271C2.08191 7.44834 1.66754 7.38459 1.38066 7.34209C1.23191 7.32084 1.11504 7.31021 1.03004 7.29959C1.03004 7.29959 1.01941 7.29959 1.00879 7.29959C1.09379 7.26771 1.24254 7.23584 1.28504 7.23584C1.28504 7.23584 1.28504 7.23584 1.28504 7.24647C1.38066 7.21459 3.36754 7.54396 6.04504 7.93709C8.20191 8.24521 11.0069 8.63834 11.8463 8.82959L11.8782 8.81897Z" fill="#84716F"/>
    <path d="M11.8355 12.0277C11.8567 12.1977 11.8355 12.4314 11.7823 12.6971C11.1448 12.5802 5.06734 11.4327 0.413594 10.5721C0.413594 10.5614 0.413594 10.3702 0.413594 10.1577C0.413594 9.97707 0.392344 9.7752 0.371094 9.66895L11.7717 11.7089C11.7717 11.7408 11.793 11.7833 11.8036 11.8258C11.7823 11.8046 10.6561 11.6133 9.27484 11.3689C7.87234 11.1246 6.74609 10.9227 6.73547 10.9333C6.73547 10.9439 7.86172 11.1564 9.26422 11.4008C10.6561 11.6452 11.7823 11.8364 11.8036 11.8258C11.8142 11.8789 11.8248 11.9533 11.8355 12.0383V12.0277ZM9.16859 12.0171C10.5711 12.2614 11.708 12.4527 11.708 12.4421C11.708 12.4314 10.5711 12.2296 9.17922 11.9852C7.77672 11.7408 6.65047 11.5389 6.63984 11.5496C6.63984 11.5602 7.76609 11.7727 9.16859 12.0171ZM5.01422 11.1139C6.92672 11.4327 8.47797 11.6877 8.47797 11.6771C8.47797 11.6664 6.92672 11.4008 5.01422 11.0821C3.10172 10.7633 1.55047 10.4977 1.55047 10.5083C1.55047 10.5189 3.10172 10.7952 5.01422 11.1139ZM4.06859 10.7527C5.98109 11.0714 7.53234 11.3264 7.53234 11.3158C7.53234 11.3052 5.98109 11.0396 4.06859 10.7208C2.15609 10.4021 0.604844 10.1364 0.604844 10.1471C0.604844 10.1577 2.15609 10.4339 4.06859 10.7527ZM4.48297 10.6996C4.48297 10.6996 3.76047 10.5508 2.85734 10.3808C1.95422 10.2108 1.23172 10.0727 1.23172 10.0939C1.23172 10.1046 1.95422 10.2533 2.85734 10.4233C3.76047 10.5933 4.48297 10.7208 4.48297 10.7102V10.6996Z" fill="#EAEADF"/>
    <path d="M11.836 8.90393C11.836 8.90393 11.8466 8.98893 11.8254 9.03143C11.2516 8.9358 1.72098 7.4483 1.4766 7.43768C1.3491 7.43768 1.04098 7.4058 1.04098 7.4058C1.04098 7.4058 1.0091 7.4058 0.987855 7.38455C0.97723 7.37393 0.966605 7.34205 0.987855 7.3208C1.83785 7.41643 11.5066 8.8508 11.8466 8.90393H11.836Z" fill="#84716F"/>
    <path d="M11.7824 7.28889C11.7824 7.35264 11.793 7.41639 11.7824 7.44826C11.7824 7.44826 11.7505 7.44826 11.7399 7.44826C8.35055 6.93826 4.86555 6.46014 1.30617 5.97139C1.21055 5.96076 1.12555 5.95014 1.02992 5.92889C1.02992 5.92889 1.0193 5.92889 1.0193 5.91826L0.998047 5.81201L4.96117 6.30076H4.95055C7.6493 6.74701 11.0174 7.29951 11.0705 7.31014C11.0705 7.31014 11.0918 7.31014 11.113 7.29951C11.1555 7.28889 11.2405 7.25701 11.3468 7.22514C11.4318 7.22514 11.6762 7.24639 11.7824 7.28889Z" fill="#84716F"/>
    <path d="M11.6866 5.36574V5.37637C11.4953 5.42949 11.0597 5.52512 10.9003 5.56762C10.9003 5.56762 6.33156 4.83449 4.42969 4.52637C7.02219 4.85574 11.1766 5.32324 11.6866 5.36574Z" fill="#EF432B"/>
    <path d="M11.6652 13.0371C11.6652 13.0371 11.6971 13.0796 11.6652 13.0902C11.5271 13.1327 11.4209 13.1858 11.3784 13.2071C11.3252 13.2283 11.2827 13.2496 11.2509 13.2708C10.7621 13.4833 10.4646 15.0558 10.8684 16.2564V16.2777C10.8259 16.3308 10.7727 16.3308 10.709 16.3202C10.624 16.3096 1.80523 13.3133 1.69898 13.2602C1.59273 13.2071 1.47585 13.1114 1.40148 12.9096C1.3271 12.7077 1.26335 12.2508 1.31648 11.8789C1.34835 11.6346 1.4546 11.3689 1.52898 11.2096C1.56085 11.1458 1.6246 11.1139 1.68835 11.1246C2.75085 11.3264 5.16273 11.7939 5.33273 11.8258C5.72585 11.9214 9.33835 12.9096 10.2946 13.2071C10.5496 13.2921 10.7515 13.3664 10.8152 13.3239C10.7196 13.2814 10.6134 13.2177 10.5284 13.1964C10.0927 13.0689 8.2546 12.5271 7.22398 12.2296C7.1921 12.2296 6.94773 12.1552 7.01148 12.1446C9.16835 12.5589 11.0596 12.9414 11.6759 13.0477L11.6652 13.0371Z" fill="#C125E8"/>
    <path d="M11.5279 9.07396L11.4535 9.09521C11.3898 9.11646 11.2623 9.15896 11.1985 9.13771L10.0723 8.85083C10.7204 8.95708 11.2304 9.03146 11.5279 9.07396Z" fill="#55AA59"/>
    <path d="M11.2833 11.2839C11.2833 11.2839 11.294 11.3477 11.2833 11.337C10.7521 11.252 2.42208 9.16953 2.37958 9.11641C2.33708 9.06328 2.12458 8.10703 2.33708 7.62891C3.95208 7.88391 7.18208 8.38328 9.42396 8.73391L11.1558 9.18016C11.2302 9.20141 11.2408 9.25453 11.2408 9.27578C11.1983 9.49891 10.9752 10.147 11.2833 11.2733V11.2839Z" fill="#55AA59"/>
    <path d="M3.63273 5.88636L11.0702 7.15073V7.22511H11.0171C10.9321 7.25698 3.22898 5.96073 1.94336 5.71636V5.61011L3.64336 5.89698L3.63273 5.88636Z" fill="#EF432B"/>
    <path d="M11.007 6.49206C11.007 6.57706 11.007 6.66206 11.007 6.74706C11.007 6.83206 10.9964 6.90644 10.9857 6.98081C10.8476 6.95956 10.3907 6.89581 9.77449 6.78956C9.59387 6.75769 9.40262 6.72581 9.20074 6.68331C6.90574 6.25831 3.03824 5.67394 2.19887 5.50394C2.20949 5.44019 2.24137 5.21706 2.23074 4.87706C2.34762 4.90894 2.68762 4.97269 3.07012 5.03644C3.55887 5.12144 3.96262 5.18519 3.96262 5.16394C3.96262 5.15331 3.56949 5.07894 3.07012 4.99394C2.67699 4.93019 2.34762 4.86644 2.22012 4.85581C2.22012 4.77081 2.20949 4.67519 2.19887 4.56894C2.33699 4.60081 3.00637 4.72831 3.80324 4.86644C4.70637 5.02581 5.43949 5.14269 5.43949 5.13206C5.43949 5.12144 4.70637 4.99394 3.80324 4.83456C2.99574 4.69644 2.32637 4.56894 2.18824 4.55831C2.18824 4.50519 2.17762 4.44144 2.16699 4.37769C3.77137 4.62206 10.6989 5.78019 10.9007 5.82269C10.9007 5.82269 10.922 5.82269 10.9432 5.81206C10.9432 5.85456 10.9645 5.95019 10.9751 6.07769C10.8157 6.03519 10.157 5.92894 9.38137 5.79081C8.47824 5.63144 7.74512 5.50394 7.74512 5.51456C7.74512 5.52519 8.47824 5.66331 9.37074 5.82269C10.157 5.96081 10.8157 6.06706 10.9751 6.08831C10.9857 6.20519 11.007 6.34331 11.007 6.48144C10.9539 6.44956 10.5395 6.38581 10.0401 6.29019C9.49824 6.19456 9.06262 6.10956 9.06262 6.13081C9.06262 6.15206 9.49824 6.24769 10.0295 6.34331C10.5395 6.43894 10.9645 6.50269 11.007 6.49206ZM5.74762 5.92894C7.66012 6.24769 9.21137 6.50269 9.21137 6.49206C9.21137 6.48144 7.66012 6.21581 5.74762 5.89706C3.83512 5.57831 2.28387 5.31269 2.28387 5.32331C2.28387 5.33394 3.83512 5.61019 5.74762 5.92894ZM7.09699 5.64206C7.09699 5.64206 6.57637 5.54644 5.93887 5.42956C5.30137 5.32331 4.78074 5.22769 4.78074 5.24894C4.78074 5.25956 5.30137 5.35519 5.93887 5.47206C6.57637 5.57831 7.09699 5.66331 7.09699 5.64206ZM6.13012 5.87581C6.13012 5.87581 5.39699 5.73769 4.49387 5.57831C3.59074 5.41894 2.85762 5.29144 2.85762 5.30206C2.85762 5.31269 3.58012 5.45081 4.48324 5.61019C5.38637 5.76956 6.11949 5.88644 6.11949 5.87581H6.13012Z" fill="#EAEADF"/>
    <path d="M8.78652 10.8908L0.626523 9.48826C0.414023 9.44576 0.233398 9.43514 0.233398 9.43514C0.807148 9.18014 1.91215 8.79764 2.12465 8.73389C2.1459 8.82951 2.1884 9.04201 2.22027 9.13764C2.2309 9.16951 2.26277 9.20139 2.29465 9.21201C2.8684 9.36076 6.34277 10.2851 8.7759 10.8908H8.78652Z" fill="#332E2D"/>
    <path d="M4.18602 6.18396L1.26414 5.83333L1.04102 5.79083C1.20039 5.75895 1.57227 5.70583 1.83789 5.66333C1.83789 5.71646 1.83789 5.75895 1.83789 5.76958C1.83789 5.76958 1.83789 5.79083 1.84852 5.79083C2.26289 5.8652 3.12352 6.01396 4.16477 6.18396H4.18602Z" fill="#84716F"/>
    <path d="M2.32598 4.17592C2.32598 4.17592 2.32598 4.18654 2.35785 4.20779C2.19848 4.18654 2.0391 4.15467 1.9541 4.14404H2.2941C2.2941 4.14404 2.31535 4.16529 2.31535 4.17592H2.32598Z" fill="#EF432B"/>
    <path d="M16.9891 13.8338C16.9891 13.8338 16.936 13.7701 16.9041 13.7595L16.766 13.7276C16.766 13.7276 16.7448 13.7276 16.7448 13.7063C16.7235 13.5576 16.5641 12.3888 16.7448 11.6132C16.7448 11.6132 16.7448 11.6026 16.766 11.592C16.8616 11.5601 16.8829 11.5601 16.8935 11.5282C16.9148 11.4963 16.9466 11.3795 16.9254 11.3051C16.9254 11.3051 16.9254 11.2945 16.9041 11.2838C16.766 11.2413 16.001 11.0607 15.7248 10.997C15.7035 10.997 15.7035 10.9651 15.7248 10.9545C15.916 10.8482 16.001 10.8057 16.0966 10.742C16.0966 10.742 16.0966 10.742 16.1073 10.742C16.1285 10.742 16.1498 10.7101 16.1604 10.657C16.256 10.4232 16.1923 9.83885 16.1391 9.65822C16.2666 9.6051 16.3941 9.5626 16.3941 9.5626C16.4154 9.48822 16.4048 9.41385 16.3835 9.37135C16.341 9.36072 16.1391 9.33947 16.1391 9.33947C16.1391 9.33947 16.001 8.29822 16.171 7.83072C16.3091 7.78822 16.341 7.79885 16.3516 7.74572C16.3516 7.6926 16.3729 7.63947 16.3729 7.59697C16.3729 7.58635 16.3729 7.57572 16.3516 7.57572C16.2348 7.55447 15.7248 7.45885 15.5866 7.42697C15.6291 7.41635 15.6291 7.3951 15.6504 7.3526C15.9266 6.7151 15.661 5.9501 15.5441 5.7801C15.5441 5.7801 15.4698 5.7376 15.3529 5.72697C15.6185 5.00447 15.2998 4.38822 15.2466 4.31385C15.2466 4.31385 15.2466 4.31385 15.236 4.31385C15.1085 4.2926 14.9066 4.27135 14.8323 4.26072V4.2501C15.0129 4.17572 15.1085 4.14385 15.1085 4.13322C15.151 4.10135 15.1404 3.98447 15.1298 3.97385C15.1191 3.96322 15.0023 3.9526 14.9704 3.9526C14.9598 3.88885 14.8535 3.4001 14.9173 2.64572C15.0235 2.62447 15.0873 2.61385 15.0979 2.61385C15.1616 2.61385 15.1935 2.47572 15.0979 2.4651C15.0129 2.4651 14.9491 2.44385 14.9279 2.44385C14.9279 2.4226 14.896 2.2951 14.8854 2.11447C14.8854 2.01885 14.8641 1.90197 14.8641 1.77447L14.9066 1.75322H14.8748C14.8748 1.60447 14.8854 1.45572 14.9173 1.30697H15.0873C15.0873 1.30697 15.1191 1.30697 15.1191 1.2751C15.1191 1.2326 15.1723 1.09447 15.1085 1.08385C15.0129 1.08385 7.91539 0.0638477 7.83039 0.0532227C7.75602 0.0532227 2.87914 0.743848 2.77289 0.754473C2.62414 0.775723 2.37977 1.63635 2.74102 2.13572C2.76227 2.1676 2.79414 2.18885 2.82602 2.18885C2.87914 2.19947 2.98539 2.22072 3.12352 2.2526V2.26322C2.96414 2.2951 2.40102 2.39072 2.32664 2.44385C2.07164 2.6351 2.10352 3.6976 2.27352 4.10135C2.18852 4.10135 1.89102 4.10135 1.78477 4.10135C1.78477 4.10135 1.76352 4.2501 1.83789 4.3776C1.83789 4.3776 1.93352 4.3776 2.08227 4.40947C2.09289 4.48385 2.12477 4.6751 2.14602 4.89822C2.15664 5.07885 2.16727 5.28072 2.14602 5.45072C2.07164 5.45072 1.92289 5.4826 1.85914 5.49322C1.84852 5.49322 1.83789 5.50385 1.83789 5.51447C1.83789 5.5251 1.83789 5.54635 1.83789 5.5676C1.50852 5.62072 0.987891 5.6951 0.881641 5.72697C0.849766 5.7376 0.902891 5.96072 0.924141 6.02447C0.924141 6.02447 0.924141 6.04572 0.945391 6.04572C1.06227 6.06697 1.18977 6.0776 1.30664 6.09885C1.41289 6.47072 1.34914 6.94885 1.30664 7.15072L0.881641 7.24635C0.881641 7.24635 0.828516 7.28885 0.828516 7.33135L0.849766 7.46947C0.849766 7.46947 0.892266 7.53322 0.924141 7.5226C1.14727 7.53322 1.71039 7.58635 2.19914 7.66072C2.15664 7.78822 2.02914 8.08572 2.10352 8.64885C1.96539 8.69135 -0.0214844 9.44572 -0.0214844 9.44572L0.0528906 9.6476L0.276016 9.6901C0.276016 9.6901 0.339766 9.88135 0.350391 10.1895C0.350391 10.2957 0.350391 10.4126 0.339766 10.5401C0.222891 10.5613 0.0210156 10.6145 0.0210156 10.6145L0.0635156 10.827C0.0635156 10.827 0.0635156 10.827 0.0741406 10.827C0.244141 10.8588 1.27477 11.0713 1.31727 11.0713H1.33852V11.0926C1.28539 11.2307 0.849766 12.3676 1.37039 13.207C1.41289 13.2813 1.48727 13.3345 1.56164 13.3663C2.88977 13.8445 10.6035 16.5326 10.8585 16.4795C11.1135 16.4263 16.7766 14.1313 16.9148 14.0145C16.9785 13.9507 16.9785 13.8976 16.9679 13.8551L16.9891 13.8338ZM16.766 13.7913C16.766 13.7913 16.7979 13.7913 16.8085 13.7913C16.8298 13.7913 16.8404 13.8232 16.8085 13.8445C16.4685 14.0038 14.981 14.6095 14.4498 14.8432C13.7379 15.1195 11.6873 15.927 11.1666 16.1288C11.1666 16.1288 11.1666 16.1288 11.156 16.1288C11.1348 16.1288 11.1135 16.1076 11.0816 16.0545C11.0816 16.0438 11.0816 16.0226 11.0923 16.012L16.5641 13.8445C16.6598 13.8126 16.7341 13.7913 16.7554 13.7913H16.766ZM16.6916 11.677C16.6916 11.677 16.6704 11.8257 16.6598 11.9532C16.6598 11.9532 16.6598 11.9745 16.6385 11.9745C16.6385 11.9745 16.6173 11.9745 16.6066 11.9745C16.4473 12.017 16.0329 12.1551 15.5548 12.3251C14.9385 12.5376 14.4391 12.7288 14.4498 12.7501C14.4498 12.7713 14.9598 12.5907 15.5654 12.3782C16.0435 12.2082 16.4473 12.0701 16.6066 12.0063C16.6279 12.0063 16.6385 12.0063 16.6385 12.0276C16.6173 12.187 16.6066 12.3888 16.596 12.612C16.596 12.6226 16.596 12.6332 16.5748 12.6332C16.4898 12.6438 16.3304 12.697 16.1498 12.7607C15.8948 12.8563 15.6823 12.9413 15.6929 12.9732C15.6929 13.0051 15.916 12.9201 16.171 12.8245C16.3304 12.7713 16.4791 12.7182 16.5535 12.6863C16.5748 12.6863 16.5854 12.6863 16.5854 12.7076C16.5854 12.8882 16.5854 13.0795 16.6066 13.2707C16.6066 13.2813 16.6066 13.292 16.5854 13.3026C16.4579 13.3451 16.0435 13.4832 15.576 13.6745C14.9916 13.8976 14.5241 14.0782 14.5348 14.0995C14.5348 14.1207 15.0129 13.9295 15.5866 13.717C16.0541 13.5363 16.4473 13.3876 16.5854 13.3345C16.596 13.3345 16.6066 13.3345 16.6066 13.3557C16.6066 13.3982 16.6066 13.4301 16.6279 13.4726C16.6279 13.4832 16.6279 13.4938 16.6066 13.5045C16.5429 13.5257 16.3729 13.5788 16.1816 13.6532C15.9373 13.7488 15.7354 13.8338 15.7354 13.8445C15.7354 13.8551 15.9373 13.7807 16.1923 13.6851C16.3835 13.6107 16.5429 13.5576 16.6066 13.5257C16.6173 13.5257 16.6385 13.5257 16.6385 13.547C16.6491 13.6107 16.6598 13.6745 16.681 13.7382C16.681 13.7488 16.681 13.7595 16.6704 13.7701C16.6279 13.7913 16.5535 13.8232 16.4579 13.8763L11.0391 15.9695C11.0391 15.9695 11.0179 15.9695 11.0073 15.9588C10.986 15.9163 10.9754 15.8526 10.9541 15.7888C10.9541 15.7888 10.9754 15.7888 10.986 15.7888C11.0073 15.7888 11.0391 15.7676 11.071 15.757C11.1348 15.7357 11.2091 15.7145 11.2835 15.6826C11.4429 15.6295 11.6448 15.5551 11.8466 15.4807C12.1229 15.3851 12.3779 15.2895 12.5691 15.2257C12.7498 15.162 12.8666 15.1195 12.8666 15.1088C12.8666 15.1088 12.7498 15.1407 12.5585 15.1938C12.3779 15.2576 12.1229 15.3426 11.836 15.4488C11.6235 15.5232 11.4323 15.5976 11.2729 15.6507C11.1879 15.6826 11.1241 15.7038 11.0604 15.7357C11.0285 15.7463 10.9966 15.757 10.9754 15.7676C10.9648 15.7676 10.9435 15.7676 10.9435 15.7463C10.9116 15.5976 10.8904 15.3957 10.8904 15.1195C10.8904 15.1088 10.8904 15.0982 10.9116 15.0982C11.0073 15.0876 11.2623 15.0026 11.5598 14.907C11.9316 14.7901 12.2398 14.6945 12.2291 14.6626C12.2291 14.6307 11.9104 14.7157 11.5385 14.8326C11.2623 14.9176 11.0285 15.0026 10.9223 15.0557C10.901 15.0557 10.8904 15.0557 10.8904 15.0345C10.8904 14.992 10.8904 14.9601 10.8904 14.9176C10.8904 14.7795 10.8904 14.6626 10.9116 14.5563C10.9116 14.5457 10.9116 14.5351 10.9329 14.5351C11.0285 14.5138 11.2516 14.4395 11.5279 14.3438C11.8785 14.227 12.1548 14.1313 12.1548 14.1101C12.1548 14.0782 11.8573 14.1632 11.5066 14.2801C11.2623 14.3651 11.0604 14.4395 10.9541 14.4926C10.9329 14.4926 10.9223 14.4926 10.9223 14.4713C10.9541 14.2163 11.0073 14.0357 11.0604 13.8976C11.0604 13.8976 11.0604 13.887 11.0816 13.887C11.156 13.8657 11.3048 13.8126 11.4748 13.7595C11.7191 13.6745 11.9104 13.6107 11.8998 13.5788C11.8998 13.547 11.6873 13.6107 11.4535 13.6957C11.3366 13.7382 11.241 13.7701 11.1666 13.8126C11.1454 13.8126 11.1241 13.802 11.1348 13.7807C11.1879 13.6851 11.2304 13.632 11.2623 13.6001C11.2729 13.6001 11.326 13.5363 11.496 13.462C11.5385 13.4513 11.6341 13.4195 11.7404 13.377C11.9741 13.292 12.3779 13.1538 12.8454 12.9945C14.2585 12.5163 16.3304 11.8257 16.6385 11.7301C16.6598 11.7301 16.6704 11.7301 16.6704 11.762L16.6916 11.677ZM16.596 11.3051C16.596 11.3051 16.6385 11.3688 16.596 11.3795L16.001 11.5813L12.5479 12.7713C12.5479 12.7713 12.5373 12.7713 12.5479 12.7607C13.2385 12.3676 14.5773 11.6238 15.5229 11.1032C15.5441 11.1032 15.5654 11.0926 15.5866 11.1032L16.596 11.3263V11.3051ZM16.3198 9.42447L11.4535 11.1138C11.4535 11.1138 11.4216 11.1138 11.4216 11.0926C11.4216 11.082 11.4216 11.0607 11.411 11.0395C12.9941 10.4338 15.7566 9.50947 16.1179 9.3926C16.1816 9.40322 16.2879 9.3926 16.3198 9.42447ZM16.0966 8.04322C16.0966 8.04322 15.7248 8.1601 15.3316 8.2876C14.9066 8.42572 14.5666 8.53197 14.5666 8.55322C14.5666 8.56385 14.9173 8.4576 15.3423 8.31947C15.7354 8.19197 16.0541 8.08572 16.0966 8.05385C16.0966 8.12822 16.086 8.23447 16.086 8.34072C16.0329 8.34072 15.7885 8.43635 15.5016 8.53197C15.1723 8.64885 14.9066 8.73385 14.9173 8.7551C14.9173 8.76572 15.1935 8.68072 15.5123 8.57447C15.7991 8.46822 16.0435 8.38322 16.086 8.35135C16.086 8.5851 16.086 8.89322 16.1073 9.25447C16.001 9.27572 15.5654 9.42447 15.066 9.59447C14.471 9.78572 13.9929 9.9451 14.0035 9.95572C14.0035 9.96635 14.4923 9.8176 15.0766 9.62635C15.5866 9.45635 16.001 9.31822 16.1179 9.2651C16.1179 9.29697 16.1179 9.31822 16.1179 9.3501C15.9373 9.41385 11.7935 10.8376 11.4004 10.9863C11.3791 10.8801 11.3473 10.7101 11.326 10.5082C11.3898 10.5082 11.5279 10.4551 11.6873 10.402C11.8998 10.3382 12.0698 10.2745 12.0698 10.2532C12.0698 10.2426 11.8891 10.2957 11.6766 10.3595C11.5173 10.4126 11.3791 10.4551 11.3154 10.4763C11.2941 10.2851 11.2941 10.062 11.3154 9.8601C11.3473 9.8601 11.4004 9.8601 11.4641 9.83885C11.5598 9.8176 11.6235 9.79635 11.6235 9.78572C11.6235 9.7751 11.5491 9.78572 11.4535 9.80697C11.4004 9.8176 11.3473 9.82822 11.3154 9.83885C11.3366 9.6901 11.3685 9.54135 11.4323 9.42447C11.4323 9.40322 11.5385 9.3501 11.5598 9.33947C11.9635 9.21197 15.2679 8.10697 16.1073 7.83072C16.1073 7.87322 16.0966 7.93697 16.086 8.04322H16.0966ZM16.3198 7.72447C16.3198 7.72447 16.2666 7.7351 16.2348 7.75635C15.5335 7.97947 11.9741 9.12697 11.4748 9.3076C11.4323 9.31822 11.3685 9.3501 11.3579 9.38197C11.2835 9.62635 11.156 10.1682 11.3579 11.1351C11.3579 11.167 11.4323 11.1988 11.4641 11.1882C11.9954 11.0076 15.9798 9.6051 16.3623 9.46697C16.3729 9.49885 16.3623 9.54135 16.341 9.55197C16.341 9.55197 16.2454 9.58385 16.086 9.6476C15.1723 9.97697 12.0273 11.0926 11.4004 11.2945C11.3579 11.3051 11.3048 11.2838 11.2941 11.2307C11.2091 10.9226 11.0604 10.147 11.2835 9.36072C11.2941 9.31822 11.3473 9.2651 11.3898 9.24385C11.5066 9.20135 11.666 9.14822 11.7723 9.11635C11.8041 9.11635 11.8254 9.11635 11.8254 9.11635C11.8679 9.11635 11.8785 9.11635 11.9104 9.11635C11.9954 9.08447 12.1441 9.0101 12.4098 8.89322C12.9623 8.7126 14.5135 8.22385 15.5016 7.9051C15.8841 7.7776 16.1923 7.68197 16.3091 7.63947C16.3304 7.67135 16.3198 7.7351 16.3091 7.7351L16.3198 7.72447ZM15.0766 10.5188C15.0766 10.5188 15.2785 10.4232 15.5229 10.2851C15.7035 10.1895 15.8629 10.1045 15.9266 10.062C15.9266 10.1576 15.9266 10.2532 15.9266 10.3382C15.8629 10.3595 15.6929 10.4551 15.5016 10.5613C15.2573 10.6995 15.066 10.8163 15.066 10.827C15.066 10.8376 15.2679 10.7313 15.5123 10.5932C15.6929 10.4976 15.8523 10.4126 15.916 10.3701C15.916 10.3913 15.916 10.4126 15.8948 10.4338C15.8841 10.4763 15.8523 10.5082 15.8098 10.5295C15.321 10.8163 11.9954 12.5588 11.8148 12.7182C11.836 12.6651 11.8785 12.3251 11.8679 12.0382C11.921 12.017 12.0379 11.9532 12.1866 11.8682C12.3673 11.7726 12.5266 11.6876 12.516 11.677C12.516 11.6663 12.3566 11.7407 12.1654 11.8363C12.0273 11.9107 11.8998 11.9851 11.8573 12.017C11.8573 11.9001 11.836 11.7938 11.8148 11.7195L14.9704 10.1788L14.9385 10.2001C14.9385 10.2107 15.1723 10.1045 15.4591 9.97697C15.6185 9.9026 15.7673 9.83885 15.8523 9.78572C15.8629 9.82822 15.8841 9.93447 15.8948 10.0513C15.831 10.0832 15.661 10.1682 15.4804 10.2638C15.236 10.402 15.0448 10.5188 15.0448 10.5295L15.0766 10.5188ZM13.961 10.487L11.8891 11.4113L11.8148 11.4432C11.6979 11.422 11.6235 11.3688 11.5173 11.3582C12.0273 11.1776 13.3129 10.7313 13.961 10.487ZM11.156 9.19072C11.2304 9.21197 11.241 9.2651 11.241 9.28635C11.1985 9.50947 10.9754 10.1576 11.2835 11.2838C11.2835 11.2838 11.2941 11.3476 11.2835 11.337C10.7523 11.252 2.42227 9.16947 2.37977 9.11635C2.33727 9.06322 2.12477 8.10697 2.33727 7.62885C3.95227 7.88385 7.18227 8.38322 9.42414 8.73385L11.156 9.1801V9.19072ZM10.0723 8.8401C10.7204 8.94635 11.2304 9.02072 11.5279 9.06322L11.4535 9.08447C11.3898 9.10572 11.2623 9.14822 11.1985 9.12697L10.0723 8.8401ZM16.2666 7.6076C16.1604 7.6501 15.8735 7.74572 15.5016 7.8626C14.6304 8.14947 13.281 8.56385 12.7073 8.7551C13.5466 8.3726 14.8323 7.78822 15.491 7.49072C15.5016 7.49072 15.5123 7.4801 15.5335 7.46947C15.5335 7.46947 16.1285 7.57572 16.2773 7.6076H16.2666ZM15.5229 5.87572C15.5866 5.98197 15.746 6.30072 15.746 6.70447C15.746 7.0126 15.6504 7.2676 15.6185 7.34197C15.6185 7.34197 15.6185 7.36322 15.5973 7.36322C15.066 7.63947 12.2079 8.8826 11.8785 9.03135C11.8785 9.0101 11.8785 8.9676 11.8573 8.90385C12.0804 8.80822 15.0448 7.51197 15.5548 7.29947C15.5973 7.27822 15.6079 7.2251 15.6185 7.1826C15.7248 6.73635 15.6929 6.47072 15.6398 6.27947C15.6291 6.22635 15.6079 6.1626 15.5866 6.1201C15.5548 6.0351 15.5123 5.97135 15.5016 5.9501C15.5016 5.9501 15.491 5.9501 15.4804 5.9501C14.8429 6.23697 12.0379 7.37385 11.8254 7.45885C11.8254 7.42697 11.8254 7.40572 11.8254 7.38447C11.8254 7.36322 11.8254 7.3526 11.8254 7.3526C11.8254 7.3526 11.836 7.3101 11.8466 7.28885C11.8466 7.28885 11.8466 7.27822 11.8573 7.27822C12.0166 7.20385 14.2479 6.4176 15.4591 5.87572C15.4804 5.87572 15.5016 5.87572 15.5123 5.89697L15.5229 5.87572ZM14.641 6.61947C14.8854 6.52385 15.151 6.39635 15.3423 6.32197C15.406 6.2901 15.4698 6.27947 15.5123 6.25822C15.5335 6.25822 15.5548 6.25822 15.5654 6.2901C15.5654 6.31135 15.576 6.3326 15.5866 6.35385C15.5441 6.36447 15.4166 6.4176 15.2785 6.48135C15.0979 6.55572 14.9598 6.61947 14.9598 6.6301C14.9598 6.64072 15.1085 6.5876 15.2891 6.51322C15.4273 6.44947 15.5441 6.39635 15.5866 6.3751C15.6079 6.49197 15.6185 6.61947 15.6079 6.73635C15.5866 6.73635 15.5016 6.76822 15.3848 6.82135C15.2679 6.87447 15.1616 6.90635 15.1723 6.9276C15.1723 6.93822 15.2785 6.90635 15.3954 6.85322C15.5016 6.81072 15.576 6.76822 15.5973 6.74697C15.5973 6.78947 15.5973 6.8426 15.5866 6.8851C15.5548 6.8851 15.4273 6.94885 15.2679 7.0126C15.0873 7.08697 14.9491 7.15072 14.9491 7.16135C14.9491 7.17197 15.0979 7.11885 15.2785 7.04447C15.4273 6.98072 15.5441 6.9276 15.5866 6.89572C15.5654 7.04447 15.5335 7.15072 15.5123 7.16135C15.3954 7.24635 13.4085 8.08572 12.4735 8.5001C12.2291 8.60635 12.0273 8.70197 11.9316 8.74447C11.9529 8.68072 11.9635 8.61697 11.9741 8.55322C12.0485 8.53197 12.2716 8.43635 12.5266 8.3301C12.8454 8.19197 13.1004 8.0751 13.0898 8.06447C13.0898 8.05385 12.8241 8.1601 12.516 8.29822C12.2716 8.40447 12.0485 8.5001 11.9741 8.53197C11.9741 8.48947 11.9848 8.44697 11.9954 8.4151C12.0591 8.39385 12.1548 8.35135 12.2716 8.30885C12.4523 8.23447 12.5904 8.17072 12.5904 8.14947C12.5904 8.13885 12.4416 8.2026 12.261 8.27697C12.1548 8.31947 12.0591 8.36197 11.9954 8.39385C12.0166 8.25572 12.0273 8.12822 12.0273 8.00072C12.0273 7.89447 12.0273 7.79885 12.0273 7.71385C12.0804 7.70322 12.1973 7.66072 12.3354 7.59697C12.516 7.5226 12.6541 7.45885 12.6541 7.4376C12.6541 7.42697 12.5054 7.49072 12.3248 7.5651C12.1866 7.61822 12.0804 7.67135 12.0273 7.6926C12.0273 7.6076 12.006 7.54385 11.9848 7.49072L15.4166 6.0351H15.4379C15.4804 6.08822 15.5123 6.13072 15.5229 6.18385V6.19447C15.5016 6.22635 15.4379 6.25822 15.3423 6.30072C15.1723 6.36447 14.9173 6.44947 14.6304 6.56635C14.131 6.76822 13.7166 6.93822 13.7273 6.95947C13.7273 6.98072 14.1416 6.82135 14.6516 6.61947H14.641ZM15.4698 5.80135C15.2998 5.87572 14.8216 6.08822 13.7485 6.5026C13.0791 6.7576 11.921 7.1826 11.8466 7.20385C11.8254 7.20385 11.6873 7.20385 11.581 7.1826C11.5598 7.1826 11.5598 7.15072 11.581 7.1401C12.5479 6.81072 14.7048 6.06697 15.321 5.84385C15.3316 5.8226 15.3423 5.80135 15.3529 5.7801C15.3848 5.7801 15.4273 5.7801 15.4698 5.80135ZM15.1829 4.35635L12.856 5.04697C12.856 5.04697 12.3673 5.19572 11.8891 5.33385C12.3885 5.16385 13.9504 4.56885 14.7048 4.28197C14.7048 4.28197 15.1935 4.35635 15.1829 4.35635ZM14.9279 3.96322C14.9491 3.96322 14.9916 3.97385 15.0235 3.98447V3.9951L11.8573 5.13197C11.7829 5.16385 11.7404 5.16385 11.7085 5.11072C11.7085 5.11072 11.7085 5.08947 11.6979 5.07885L14.9279 3.96322ZM11.666 4.96197C11.7191 4.95135 11.8466 4.90885 11.9954 4.85572C12.1866 4.78135 12.346 4.7176 12.3354 4.69635C12.3354 4.68572 12.176 4.74947 11.9848 4.82385C11.8466 4.87697 11.7191 4.91947 11.666 4.95135C11.6129 4.77072 11.5916 4.53697 11.581 4.38822C11.581 4.21822 11.581 4.0376 11.6235 3.87822C11.6235 3.87822 11.6341 3.87822 11.6448 3.87822C11.6873 3.8676 11.7616 3.84635 11.8466 3.8251C12.006 3.7826 12.2185 3.70822 12.4629 3.63385C12.7073 3.55947 12.9198 3.4851 13.0791 3.4426C13.2385 3.38947 13.3341 3.3576 13.3341 3.34697C13.3341 3.34697 13.2279 3.36822 13.0791 3.41072C12.9198 3.45322 12.6966 3.5276 12.4629 3.60197C12.2291 3.67635 12.006 3.75072 11.8466 3.80385C11.7616 3.83572 11.6979 3.85697 11.6554 3.8676C11.6873 3.76135 11.7298 3.66572 11.7935 3.60197C12.1016 3.50635 14.6835 2.69885 14.726 2.6776H14.6835C14.7685 2.6776 14.8429 2.65635 14.9066 2.64572C14.8748 3.0176 14.8748 3.4001 14.896 3.66572C14.8429 3.68697 14.7579 3.70822 14.6623 3.7401C14.4923 3.79322 14.3541 3.83572 14.3648 3.85697C14.3648 3.8676 14.5029 3.83572 14.6729 3.77197C14.7579 3.7401 14.8323 3.71885 14.8854 3.6976C14.8854 3.6976 14.8854 3.6976 14.896 3.6976C14.896 3.72947 14.896 3.76135 14.896 3.79322C14.7473 3.83572 14.4498 3.94197 14.1204 4.04822C13.876 4.13322 13.6529 4.2076 13.4935 4.26072C13.3341 4.31385 13.2385 4.35635 13.2385 4.35635C13.2385 4.35635 13.3448 4.3351 13.5041 4.28197C13.6635 4.22885 13.8866 4.15447 14.131 4.0801C14.471 3.96322 14.7579 3.8676 14.9066 3.80385C14.9066 3.84635 14.9066 3.87822 14.9173 3.89947L11.7191 5.0151C11.7191 4.99385 11.7085 4.9726 11.6979 4.95135L11.666 4.96197ZM14.9704 2.45447C14.9916 2.45447 15.0129 2.45447 15.0235 2.4651C14.5029 2.56072 10.3379 3.32572 10.2848 3.3151H10.2635V3.30447C11.9741 2.9751 13.5785 2.6776 14.9704 2.4651V2.45447ZM10.1891 3.19822C10.3804 3.16635 10.8479 3.07072 11.3791 2.96447C12.091 2.81572 12.6648 2.68822 12.6541 2.66697C12.6541 2.65635 12.0804 2.77322 11.3685 2.92197C10.8373 3.03885 10.3804 3.13447 10.1785 3.17697C10.136 3.09197 10.1041 2.95385 10.0829 2.74135C10.0616 2.49697 10.0723 2.31635 10.1148 2.14635C10.1148 2.14635 10.1254 2.14635 10.136 2.14635C10.1679 2.14635 10.1891 2.13572 10.1785 2.11447C10.1785 2.10385 10.1573 2.11447 10.1254 2.11447C10.1254 2.11447 10.1254 2.11447 10.1148 2.11447C10.1254 2.07197 10.1466 2.01885 10.1573 1.97635C10.1891 1.90197 10.2529 1.84885 10.3273 1.83822C10.8798 1.7426 13.9929 1.3601 14.8641 1.25385C14.8535 1.32822 14.8323 1.49822 14.8216 1.7001C14.726 1.71072 14.556 1.75322 14.3648 1.79572C14.0779 1.85947 13.8335 1.90197 13.8441 1.9126C13.8441 1.92322 14.0885 1.89135 14.3754 1.8276C14.5773 1.7851 14.7473 1.75322 14.8323 1.72135L14.8216 1.73197C14.8216 1.7851 14.8216 1.83822 14.8216 1.90197C14.8216 1.9551 14.8216 2.00822 14.8216 2.05072C14.8216 2.05072 14.6835 2.06135 14.5879 2.0826C14.4391 2.11447 14.3223 2.1251 14.3223 2.14635C14.3223 2.15697 14.4498 2.14635 14.5985 2.1251C14.6835 2.11447 14.7579 2.09322 14.811 2.0826C14.811 2.0826 14.811 2.0826 14.8216 2.0826C14.8216 2.22072 14.8323 2.27385 14.8535 2.40135C13.4616 2.62447 11.9529 2.92197 10.221 3.25135C10.2104 3.24072 10.1998 3.21947 10.1891 3.19822ZM2.82602 2.05072C2.76227 2.01885 2.65602 1.85947 2.62414 1.47697C2.59227 1.1051 2.78352 0.786348 2.79414 0.765098C2.83664 0.733223 2.97477 0.733223 2.98539 0.733223C2.99602 0.733223 7.24602 0.159473 7.74539 0.0850977C7.77727 0.0850977 7.80914 0.0850977 7.84102 0.0850977C8.40414 0.170098 13.9716 0.945723 14.8535 1.07322V1.08385L12.8241 1.32822C12.8241 1.32822 10.8798 1.5726 10.2104 1.67885C10.1785 1.67885 10.136 1.7001 10.1148 1.72135L3.24039 0.743848H3.22977V0.765098C3.75039 0.828848 9.90227 1.7851 9.96602 1.79572C10.0298 1.79572 9.96602 1.9551 9.96602 1.9551C9.85977 2.2101 9.88102 2.61385 9.91289 2.68822C9.89164 2.2101 9.96602 1.81697 10.1998 1.75322C10.391 1.7001 14.556 1.17947 15.0235 1.11572C15.0235 1.11572 15.0235 1.13697 15.0235 1.1476C14.4923 1.21135 10.9966 1.64697 10.2848 1.76385C10.1998 1.77447 10.1148 1.8276 10.0829 1.9126C9.98727 2.15697 9.95539 2.5926 9.98727 2.81572C10.0191 3.00697 10.051 3.13447 10.0829 3.20885C10.1573 3.38947 10.2316 3.34697 10.2848 3.3576C10.3273 3.37885 13.5573 2.75197 15.066 2.4651V2.48635C14.8748 2.51822 10.3698 3.37885 10.2741 3.4001C10.2423 3.4001 10.2104 3.41072 10.1891 3.41072C10.0404 3.38947 9.96602 3.09197 9.93414 2.8901C9.93414 2.8901 9.91289 2.8901 9.92352 2.8901C9.94477 3.19822 10.0191 3.33635 10.0723 3.41072C9.97664 3.4001 2.90039 2.06135 2.84727 2.02947L2.82602 2.05072ZM13.6848 2.8476L13.5573 2.87947C13.5573 2.87947 12.7285 3.1026 11.6554 3.4001C11.6554 3.4001 11.5173 3.4001 11.2729 3.37885C11.241 3.37885 11.241 3.33635 11.2729 3.32572C11.9635 3.1876 12.8985 3.00697 13.6741 2.8476H13.6848ZM2.22039 3.49572C2.17789 2.96447 2.32664 2.51822 2.39039 2.4651C2.43289 2.4226 2.93227 2.31635 3.17664 2.26322C3.19789 2.26322 3.24039 2.26322 3.26164 2.26322C3.29352 2.26322 3.33602 2.26322 3.36789 2.26322C3.39977 2.26322 3.43164 2.26322 3.45289 2.26322C4.00539 2.36947 4.82352 2.52885 5.69477 2.69885C5.71602 2.69885 5.70539 2.73072 5.69477 2.73072C4.65352 2.61385 2.88977 2.43322 2.84727 2.43322H2.68789V2.45447C3.00664 2.48635 5.50352 2.74135 6.44914 2.85822C6.44914 2.85822 6.47039 2.85822 6.48102 2.85822C8.19164 3.1876 9.89164 3.51697 10.0191 3.5276C10.1679 3.54885 10.1785 3.53822 10.2741 3.5276C10.2954 3.5276 10.561 3.47447 10.9648 3.38947C11.3048 3.43197 11.5279 3.45322 11.5598 3.45322C11.5704 3.45322 11.581 3.47447 11.5704 3.4851C11.4748 3.63385 11.4535 3.80385 11.4429 3.93135C11.4429 3.9526 11.4641 3.9526 11.4641 3.93135C11.5066 3.6551 11.6448 3.47447 11.6979 3.45322C11.7616 3.43197 13.5573 2.90072 13.8973 2.8051C14.0248 2.78385 14.1416 2.7626 14.2479 2.74135C14.2479 2.74135 14.2585 2.75197 14.2479 2.75197C13.5785 2.94322 11.7829 3.47447 11.7085 3.5276C11.6235 3.58072 11.496 3.94197 11.5279 4.40947C11.5491 4.78135 11.6235 5.0151 11.6979 5.15322C11.7191 5.1851 11.7616 5.20635 11.8041 5.19572C12.2504 5.04697 14.726 4.13322 15.0873 4.01635C15.0873 4.02697 15.0873 4.0376 15.0873 4.04822C15.0873 4.04822 15.0873 4.05885 15.0766 4.05885C14.8854 4.1226 11.8573 5.29135 11.8041 5.29135C11.8041 5.29135 11.7829 5.29135 11.7616 5.29135C11.7616 5.29135 11.7404 5.29135 11.7298 5.29135C11.5491 5.24885 11.4748 4.61135 11.4535 4.39885C11.4535 4.94072 11.5279 5.16385 11.581 5.24885V5.25947C10.3273 5.12135 2.57102 4.15447 2.57102 4.15447C2.57102 4.15447 2.47539 4.14385 2.43289 4.10135C2.37977 4.06947 2.28414 3.98447 2.24164 3.4851L2.22039 3.49572ZM11.6979 5.38697C11.5066 5.4401 11.071 5.53572 10.9116 5.57822C10.9116 5.57822 6.34289 4.8451 4.44102 4.53697C7.03351 4.86635 11.1879 5.33385 11.6979 5.37635V5.38697ZM2.30539 4.13322C2.30539 4.13322 2.32664 4.15447 2.32664 4.1651C2.32664 4.1651 2.32664 4.17572 2.35852 4.19697C2.19914 4.17572 2.03977 4.14385 1.95477 4.13322H2.29477H2.30539ZM1.86977 4.26072C1.86977 4.26072 1.85914 4.18635 1.86977 4.1651C2.06102 4.2076 3.12352 4.34572 3.13414 4.34572L10.901 5.62072C10.901 5.62072 11.5066 5.4826 11.7298 5.42947C11.9741 5.36572 14.981 4.45197 15.2466 4.35635C15.2466 4.35635 15.2466 4.35635 15.2573 4.35635C15.2998 4.44135 15.4273 4.82385 15.4166 5.16385C15.4166 5.51447 15.2891 5.75885 15.2679 5.80135L11.241 7.16135C11.241 7.16135 11.156 7.19322 11.1135 7.20385C11.1135 7.17197 11.1135 7.15072 11.1135 7.11885C11.156 7.0976 11.2304 7.07635 11.3154 7.04447C12.0698 6.8001 14.5348 5.9926 15.2254 5.75885C15.2466 5.75885 15.2573 5.7376 15.2679 5.72697C15.2998 5.66322 15.3848 5.41885 15.3741 5.1001C15.3741 5.06822 15.3741 5.03635 15.3741 5.00447C15.3529 4.6751 15.2785 4.5476 15.2254 4.44135C15.2254 4.44135 15.2254 4.44135 15.2148 4.44135C15.0023 4.5051 11.3473 5.59947 10.9966 5.71635C10.986 5.71635 10.9541 5.72697 10.9223 5.7376C10.9223 5.7376 2.27352 4.2926 1.91227 4.26072H1.90164H1.86977ZM11.0604 7.2251C11.0604 7.2251 11.0179 7.2251 11.0073 7.2251C10.9223 7.25697 3.21914 5.96072 1.93352 5.71635V5.6101L3.63352 5.89697L11.071 7.16135V7.23572L11.0604 7.2251ZM15.2466 5.37635C15.236 5.47197 15.2041 5.5676 15.151 5.66322C15.0448 5.67385 13.1854 6.25822 11.0073 6.99135C11.0073 6.94885 11.0179 6.86385 11.0285 6.7576C11.0604 6.7576 11.156 6.72572 11.3791 6.66197C11.581 6.59822 12.7604 6.19447 12.7604 6.17322C12.7604 6.1626 11.5704 6.56635 11.3685 6.61947C11.2091 6.6726 11.0816 6.70447 11.0285 6.72572C11.0285 6.56635 11.0285 6.34322 11.0073 6.08822C11.0073 5.9926 10.986 5.89697 10.9754 5.80135C11.5598 5.59947 14.4816 4.7176 15.1085 4.51572C15.1085 4.51572 15.1191 4.51572 15.1298 4.51572C15.1829 4.60072 15.3104 4.99385 15.2466 5.36572V5.37635ZM10.8904 5.83322C10.8904 5.83322 10.9116 5.83322 10.9329 5.8226C10.9329 5.8651 10.9541 5.96072 10.9648 6.08822C10.8054 6.04572 10.1466 5.93947 9.37102 5.80135C8.46789 5.64197 7.73477 5.51447 7.73477 5.5251C7.73477 5.53572 8.46789 5.67385 9.36039 5.83322C10.1466 5.97135 10.8054 6.0776 10.9648 6.09885C10.9754 6.21572 10.9966 6.35385 10.9966 6.49197C10.9435 6.4601 10.5291 6.39635 10.0298 6.30072C9.48789 6.2051 9.05227 6.1201 9.05227 6.14135C9.05227 6.1626 9.48789 6.25822 10.0191 6.35385C10.5291 6.44947 10.9541 6.51322 10.9966 6.5026C10.9966 6.5876 10.9966 6.6726 10.9966 6.7576C10.9966 6.8426 10.986 6.91697 10.9754 6.99135C10.8373 6.9701 10.3804 6.90635 9.76414 6.8001C9.58352 6.76822 9.39227 6.73635 9.19039 6.69385C6.89539 6.26885 3.02789 5.68447 2.18852 5.51447C2.19914 5.45072 2.23102 5.2276 2.22039 4.8876C2.33727 4.91947 2.67727 4.98322 3.05977 5.04697C3.54852 5.13197 3.95227 5.19572 3.95227 5.17447C3.95227 5.16385 3.55914 5.08947 3.05977 5.00447C2.66664 4.94072 2.33727 4.87697 2.20977 4.86635C2.20977 4.78135 2.19914 4.68572 2.18852 4.57947C2.32664 4.61135 2.99602 4.73885 3.79289 4.87697C4.69602 5.03635 5.42914 5.15322 5.42914 5.1426C5.42914 5.13197 4.69602 5.00447 3.79289 4.8451C2.98539 4.70697 2.31602 4.57947 2.17789 4.56885C2.17789 4.51572 2.16727 4.45197 2.15664 4.38822C3.76102 4.6326 10.6885 5.79072 10.8904 5.83322ZM2.12477 5.50385V5.53572C2.12477 5.53572 2.14602 5.53572 2.15664 5.53572C2.96414 5.70572 6.87414 6.30072 9.17977 6.7151C9.38164 6.7576 9.57289 6.78947 9.75352 6.82135C10.4441 6.93822 10.9116 7.0126 10.986 7.02322H11.0073C11.5279 6.83197 15.1191 5.66322 15.1723 5.68447C15.1723 5.68447 15.236 5.58885 15.2679 5.3976C15.2679 5.3976 15.2679 5.37635 15.2679 5.36572C15.2998 5.16385 15.2998 4.86635 15.1616 4.48385C15.1935 4.47322 15.2998 4.68572 15.321 4.99385C15.321 5.12135 15.321 5.25947 15.2998 5.3976C15.2785 5.49322 15.2573 5.58885 15.2148 5.68447C15.2148 5.68447 15.2041 5.70572 15.1935 5.70572C14.5348 5.92885 11.5279 6.95947 11.0816 7.06572C11.071 7.06572 11.0604 7.06572 11.0498 7.06572C11.0498 7.06572 6.22602 6.26885 3.63352 5.8226C2.71977 5.66322 2.08227 5.55697 2.03977 5.54635C1.99727 5.53572 1.96539 5.51447 1.93352 5.50385L2.12477 5.4826V5.50385ZM1.84852 5.6526C1.84852 5.6526 1.84852 5.74822 1.84852 5.75885C1.84852 5.75885 1.84852 5.7801 1.85914 5.7801C2.27352 5.85447 3.13414 6.00322 4.17539 6.17322L1.25352 5.8226L1.03039 5.7801C1.18977 5.74822 1.56164 5.6951 1.82727 5.6526H1.84852ZM1.01977 5.92885L0.998516 5.8226L4.96164 6.31135H4.95102C7.64977 6.7576 11.0179 7.3101 11.071 7.32072C11.071 7.32072 11.0923 7.32072 11.1135 7.3101C11.156 7.29947 11.241 7.2676 11.3473 7.23572C11.4323 7.23572 11.6766 7.25697 11.7829 7.29947C11.7829 7.36322 11.7935 7.42697 11.7829 7.45885C11.7829 7.45885 11.751 7.45885 11.7404 7.45885C8.35102 6.94885 4.86602 6.47072 1.30664 5.98197C1.21102 5.97135 1.12602 5.96072 1.03039 5.93947C1.03039 5.93947 1.01977 5.93947 1.01977 5.92885ZM1.38102 6.0776C4.95102 6.55572 8.42539 7.04447 11.8254 7.53322L11.8891 7.50135C11.9529 7.62885 11.9741 7.79885 11.9741 7.97947C11.8041 7.9476 10.8373 7.79885 9.67914 7.62885C8.39352 7.4376 7.35227 7.27822 7.35227 7.29947C7.35227 7.3101 8.39352 7.4801 9.67914 7.66072C10.8373 7.83072 11.8041 7.96885 11.9741 7.97947C11.9741 8.1176 11.9635 8.26635 11.9423 8.38322C11.9316 8.38322 11.921 8.39385 11.921 8.40447C11.921 8.40447 11.921 8.40447 11.9316 8.40447C11.9316 8.44697 11.921 8.5001 11.9104 8.53197C11.8891 8.6276 11.8785 8.70197 11.8679 8.7551C11.0179 8.56385 8.35102 8.2026 6.19414 7.89447C4.94039 7.71385 3.70789 7.4801 2.84727 7.36322C1.77414 7.2251 1.44477 7.19322 1.33852 7.19322C1.33852 7.1401 1.45539 6.55572 1.35977 6.06697L1.38102 6.0776ZM1.29602 7.2251C1.29602 7.2251 1.29602 7.2251 1.29602 7.23572C1.39164 7.20385 3.37852 7.53322 6.05602 7.92635C8.21289 8.23447 11.0179 8.6276 11.8573 8.81885C11.9316 8.78697 12.176 8.65947 12.4523 8.53197C13.0791 8.25572 14.0566 7.84135 14.7366 7.54385C15.0979 7.38447 15.3848 7.25697 15.4698 7.21447C15.491 7.21447 15.5123 7.21447 15.5335 7.21447C15.5335 7.21447 15.5441 7.20385 15.5548 7.19322C15.5548 7.19322 15.5229 7.19322 15.5229 7.15072C15.5441 7.0976 15.5654 7.00197 15.5866 6.8851C15.6079 6.73635 15.6185 6.5451 15.5866 6.36447C15.5654 6.23697 15.5229 6.1201 15.4485 6.01385V6.00322C15.4591 6.00322 15.4804 6.00322 15.491 6.01385C15.5123 6.0351 15.5335 6.0776 15.5548 6.13072C15.6291 6.31135 15.7035 6.64072 15.576 7.17197C15.576 7.1826 15.576 7.19322 15.5654 7.20385C15.5548 7.2251 15.5335 7.23572 15.5229 7.24635C15.3954 7.29947 15.1085 7.42697 14.7579 7.57572C13.7485 8.01135 12.1654 8.7126 11.8785 8.8401C11.8573 8.8401 11.8466 8.85072 11.836 8.86135C11.7085 8.8401 9.03102 8.4576 6.37477 8.0751C4.79164 7.84135 3.52727 7.66072 2.61352 7.5226C2.07164 7.44822 1.65727 7.38447 1.37039 7.34197C1.22164 7.32072 1.10477 7.3101 1.01977 7.29947C1.01977 7.29947 1.00914 7.29947 0.998516 7.29947C1.08352 7.2676 1.23227 7.23572 1.27477 7.23572L1.29602 7.2251ZM1.46602 7.4376C1.33852 7.4376 1.03039 7.40572 1.03039 7.40572C1.03039 7.40572 0.998516 7.40572 0.977266 7.38447C0.966641 7.37385 0.956016 7.34197 0.977266 7.32072C1.82727 7.41635 11.496 8.85072 11.836 8.90385C11.836 8.93572 11.8466 8.98885 11.8254 9.03135C11.2516 8.93572 1.72102 7.44822 1.47664 7.4376H1.46602ZM2.13539 8.73385C2.15664 8.82947 2.19914 9.04197 2.23102 9.1376C2.24164 9.16947 2.27352 9.20135 2.30539 9.21197C2.87914 9.36072 6.35352 10.2851 8.78664 10.8907L0.626641 9.48822C0.414141 9.44572 0.233516 9.4351 0.233516 9.4351C0.807266 9.1801 1.91227 8.7976 2.12477 8.73385H2.13539ZM0.626641 9.50947L9.84914 11.1245C9.84914 11.1245 9.84914 11.1245 9.85977 11.1245L9.76414 11.1032L9.92352 11.1351C10.731 11.337 11.241 11.422 11.2623 11.422C11.2623 11.422 11.2941 11.422 11.3579 11.3901C11.3579 11.3901 11.7935 11.4751 11.8254 11.4751C11.8254 11.4751 14.0991 10.487 14.6198 10.2213C14.7473 10.1788 14.8641 10.1257 14.981 10.0832L11.8041 11.592L0.159141 9.5626L0.127266 9.45635C0.127266 9.45635 0.456641 9.49885 0.637266 9.50947H0.626641ZM0.361016 9.66885L11.7616 11.7088C11.7616 11.7407 11.7829 11.7832 11.7935 11.8257C11.7723 11.8045 10.646 11.6132 9.26477 11.3688C7.86227 11.1245 6.73602 10.9226 6.72539 10.9332C6.72539 10.9438 7.85164 11.1563 9.25414 11.4007C10.646 11.6451 11.7723 11.8363 11.7935 11.8257C11.8041 11.8788 11.8148 11.9532 11.8254 12.0382C11.8466 12.2082 11.8254 12.442 11.7723 12.7076C11.1348 12.5907 5.05727 11.4432 0.403516 10.5826C0.403516 10.572 0.403516 10.3807 0.403516 10.1682C0.403516 9.9876 0.382266 9.78572 0.361016 9.67947V9.66885ZM0.350391 10.5826C5.24852 11.4857 11.836 12.782 11.836 12.782C11.8679 12.7607 15.3423 10.8482 15.8416 10.5507C15.8841 10.5188 15.916 10.4763 15.9373 10.4338C15.9479 10.402 15.9585 10.3701 15.9585 10.3276C15.9691 10.232 15.9691 10.1257 15.9585 10.0301C15.9479 9.88135 15.9266 9.7751 15.916 9.75385C15.916 9.75385 15.916 9.75385 15.9266 9.75385C15.9373 9.75385 15.9585 9.74322 15.9798 9.7326C16.0754 9.87072 16.1073 10.4126 16.0223 10.572C15.9585 10.6676 13.5254 11.9745 12.4841 12.5376C12.2079 12.6863 12.006 12.7926 11.9423 12.8351C11.9423 12.8351 11.921 12.8351 11.9104 12.8457C11.8998 12.8457 11.8785 12.8457 11.8573 12.867L0.212266 10.6145H0.159141L0.350391 10.5826ZM0.169766 10.6995V10.6357L11.8573 12.8988C11.8785 12.8988 11.8998 12.8882 11.9104 12.8776C11.921 12.8776 11.9316 12.8776 11.9423 12.867C12.0166 12.8245 12.2079 12.7182 12.4841 12.5695C14.301 11.592 15.9904 10.6782 16.0435 10.5932C16.1285 10.4338 16.1179 9.9026 16.001 9.7326C16.0223 9.7326 16.0541 9.72197 16.0754 9.71135C16.1604 9.97697 16.1604 10.3488 16.1391 10.5295C16.1391 10.6038 16.086 10.657 16.0435 10.6888C16.0223 10.6995 16.001 10.7207 15.9798 10.7313C15.9798 10.7313 15.9798 10.7313 15.9691 10.7313C15.6291 10.9013 11.8998 12.9732 11.8785 12.9626C10.9541 12.8032 2.47539 11.1351 0.159141 10.6888L0.169766 10.6995ZM10.8585 16.2776C10.8585 16.2776 10.7629 16.3307 10.6991 16.3201C10.6141 16.3095 1.79539 13.3132 1.68914 13.2601C1.58289 13.207 1.46602 13.1113 1.39164 12.9095C1.31727 12.7076 1.25352 12.2507 1.30664 11.8788C1.33852 11.6345 1.44477 11.3688 1.51914 11.2095C1.55102 11.1457 1.61477 11.1138 1.67852 11.1245C2.74102 11.3263 5.15289 11.7938 5.32289 11.8257C5.71602 11.9213 9.32852 12.9095 10.2848 13.207C10.5398 13.292 10.7416 13.3663 10.8054 13.3238C10.7098 13.2813 10.6035 13.2176 10.5185 13.1963C10.0829 13.0688 8.24477 12.527 7.21414 12.2295C7.18227 12.2295 6.93789 12.1551 7.00164 12.1445C9.15852 12.5588 11.0498 12.9413 11.666 13.0476C11.6873 13.0476 11.6979 13.0901 11.666 13.1007C11.5279 13.1432 11.4216 13.1963 11.3791 13.2176C11.326 13.2388 11.2835 13.2601 11.2516 13.2813C10.7629 13.4938 10.4654 15.0663 10.8691 16.267V16.2882L10.8585 16.2776ZM16.8616 13.9613C16.8616 13.9613 11.666 16.1076 11.1773 16.267H11.156C11.0816 16.267 10.8798 16.2245 10.7629 15.3957C10.6354 14.5032 10.8479 13.4407 11.3685 13.2601L11.4535 13.2282C11.4535 13.2282 11.6766 13.1432 11.8254 13.0795C11.8466 13.0795 11.8891 13.0795 11.9104 13.0795C11.9529 13.0901 11.9848 13.0901 12.0273 13.0795C12.0698 13.0476 12.1335 13.0157 12.1973 12.9945C13.0791 12.6863 14.5666 12.1338 15.6291 11.7513C16.0966 11.6026 16.6279 11.4326 16.8191 11.3582C16.8404 11.3582 16.851 11.3582 16.851 11.3795C16.851 11.4113 16.851 11.4538 16.8298 11.4751C16.7766 11.507 16.681 11.5388 16.6704 11.5388C16.6173 11.5601 13.3341 12.6757 12.0379 13.1113C11.8998 13.1538 11.7829 13.1963 11.6873 13.2282C11.5598 13.2707 11.3473 13.3132 11.2304 13.4407C11.0923 13.5682 10.8585 13.9295 10.8373 14.8538C10.816 15.9588 11.0391 16.1395 11.0604 16.1501C11.1135 16.2032 11.1879 16.182 11.1985 16.1713C11.3048 16.1288 13.7273 15.162 14.4816 14.8432C15.066 14.6201 16.6704 13.9507 16.9148 13.8338C16.9148 13.8976 16.8935 13.8976 16.8404 13.9401L16.8616 13.9613Z" fill="#1E1E1E"/>
    <path d="M15.2365 12.9838C15.2365 12.9838 15.5446 12.8881 15.9165 12.75C16.2884 12.6119 16.5965 12.5056 16.5859 12.4844C16.5859 12.4738 16.2777 12.58 15.8952 12.7075C15.5234 12.8456 15.2152 12.9625 15.2259 12.9731L15.2365 12.9838Z" fill="#1E1E1E"/>
    <path d="M14.6516 9.30759C14.6516 9.30759 14.981 9.22259 15.3741 9.09509C15.7672 8.96759 16.086 8.85071 16.086 8.84009C16.086 8.82946 15.7566 8.93571 15.3635 9.06321C14.9704 9.19071 14.641 9.29696 14.6516 9.31821V9.30759Z" fill="#1E1E1E"/>
    <path d="M13.4189 13.3558C13.4189 13.3558 14.0139 13.1539 14.7471 12.8989C15.4802 12.6333 16.0646 12.4314 16.0646 12.4102C16.0646 12.3889 15.4696 12.6014 14.7364 12.8564C14.0033 13.122 13.4189 13.3345 13.4296 13.3558H13.4189Z" fill="#1E1E1E"/>
    <path d="M13.9605 9.38206C14.9593 9.04206 15.7774 8.76581 15.7668 8.74456C15.7668 8.72331 14.9487 8.99956 13.9499 9.33956C12.9512 9.67956 12.133 9.94518 12.1437 9.96643C12.1437 9.98768 12.9618 9.72206 13.9712 9.39268L13.9605 9.38206Z" fill="#1E1E1E"/>
    <path d="M14.705 10.8589C14.705 10.8589 14.9068 10.7633 15.1512 10.6252C15.3956 10.4871 15.5975 10.3808 15.5868 10.3702C15.5868 10.3596 15.3743 10.4552 15.13 10.5933C14.8856 10.7314 14.6943 10.8483 14.6943 10.8589H14.705Z" fill="#1E1E1E"/>
    <path d="M14.8325 7.31C14.8325 7.31 15.0025 7.25687 15.1938 7.17187C15.385 7.08687 15.5444 7.00187 15.5444 6.99125C15.5444 6.98062 15.385 7.055 15.1831 7.14C14.9919 7.225 14.8219 7.29937 14.8325 7.31Z" fill="#1E1E1E"/>
    <path d="M15.417 10.1895C15.417 10.1895 15.1301 10.317 14.7901 10.4976C14.4501 10.6782 14.1738 10.8376 14.1738 10.8482C14.1738 10.8588 14.4607 10.7101 14.8007 10.5295C15.1407 10.3488 15.4276 10.2001 15.417 10.1895Z" fill="#1E1E1E"/>
    <path d="M13.9075 14.5244C13.9075 14.5244 14.2156 14.4182 14.5981 14.28C14.9806 14.1419 15.2887 14.025 15.2781 14.0144C15.2781 14.0038 14.9594 14.11 14.5875 14.2482C14.205 14.3863 13.8969 14.5138 13.9075 14.5244Z" fill="#1E1E1E"/>
    <path d="M14.0244 5.5251C14.0244 5.5251 14.3007 5.47198 14.6407 5.36573C14.9807 5.2701 15.2463 5.1851 15.2463 5.16385C15.2463 5.15323 14.97 5.2276 14.63 5.33385C14.29 5.42948 14.0244 5.50385 14.0244 5.5251Z" fill="#1E1E1E"/>
    <path d="M13.621 7.38452C13.621 7.38452 13.9504 7.27827 14.3329 7.1189C14.726 6.95952 15.0341 6.81077 15.0235 6.78952C15.0235 6.76827 14.7047 6.9064 14.3116 7.06577C13.9185 7.22515 13.6104 7.35265 13.6104 7.3739L13.621 7.38452Z" fill="#1E1E1E"/>
    <path d="M14.9597 10.6145C14.9597 10.6145 14.3541 10.9333 13.6104 11.3476C12.8772 11.762 12.2822 12.102 12.2822 12.1233C12.2822 12.1339 12.8879 11.7939 13.621 11.3795C14.3541 10.9651 14.9597 10.6358 14.9491 10.6145H14.9597Z" fill="#1E1E1E"/>
    <path d="M14.492 4.97263C14.6939 4.90888 14.8532 4.85576 14.8532 4.84513C14.8532 4.83451 14.6832 4.87701 14.4814 4.94076C14.2795 5.00451 14.1201 5.04701 14.1201 5.05763C14.1201 5.06826 14.2901 5.03638 14.492 4.97263Z" fill="#1E1E1E"/>
    <path d="M13.2812 3.95262C13.2812 3.95262 13.3769 3.93137 13.5256 3.88887C13.6744 3.84637 13.8763 3.78262 14.0994 3.70824C14.4181 3.60199 14.705 3.51699 14.8219 3.46387C14.8219 3.46387 14.8325 3.46387 14.8431 3.46387C14.7263 3.48512 14.4288 3.58074 14.0888 3.69762C13.8656 3.77199 13.6638 3.83574 13.515 3.87824C13.3663 3.93137 13.2812 3.96324 13.2812 3.96324V3.95262Z" fill="#1E1E1E"/>
    <path d="M14.3005 3.1664C14.598 3.0814 14.8318 2.98577 14.8318 2.96452C14.8318 2.9539 14.5874 3.0389 14.2899 3.13452C13.9924 3.21952 13.748 3.28327 13.748 3.2939C13.748 3.30452 14.003 3.26202 14.3005 3.1664Z" fill="#1E1E1E"/>
    <path d="M14.3227 1.47694C14.6096 1.43444 14.8327 1.38131 14.8327 1.37069C14.8327 1.36006 14.599 1.39194 14.3121 1.44506C14.0252 1.48756 13.7915 1.53006 13.8021 1.54069C13.8021 1.55131 14.0359 1.53006 14.3227 1.47694Z" fill="#1E1E1E"/>
    <path d="M13.2598 2.5927C13.2598 2.5927 13.3448 2.5927 13.4935 2.5502C13.6316 2.51832 13.8335 2.47582 14.046 2.4227C14.2585 2.36957 14.4604 2.32707 14.5985 2.2952C14.7366 2.26332 14.8216 2.24207 14.8216 2.23145C14.8216 2.23145 14.7366 2.23145 14.5879 2.26332C14.4498 2.2952 14.2479 2.3377 14.0354 2.3802C13.8229 2.43332 13.621 2.47582 13.4829 2.51832C13.3448 2.5502 13.2598 2.58207 13.2598 2.5927Z" fill="#1E1E1E"/>
    <path d="M13.196 10.0725C12.3354 10.37 11.6448 10.625 11.6554 10.6463C11.6554 10.6675 12.3566 10.4125 13.2066 10.115C14.0673 9.8175 14.7579 9.57313 14.7579 9.55188C14.7579 9.53063 14.0566 9.76438 13.196 10.0725Z" fill="#1E1E1E"/>
    <path d="M12.6331 1.93376C13.7913 1.72126 14.7369 1.54064 14.7263 1.53001C14.7156 1.51939 13.7806 1.68939 12.6225 1.90189C11.4644 2.11439 10.5188 2.28439 10.5294 2.30564C10.5294 2.31626 11.475 2.15689 12.6331 1.94439V1.93376Z" fill="#1E1E1E"/>
    <path d="M14.535 3.37881C14.4713 3.40006 14.4075 3.41068 14.4182 3.42131C14.4182 3.43193 14.4819 3.42131 14.5457 3.42131C14.6094 3.40006 14.6625 3.38943 14.6625 3.36818C14.6625 3.35756 14.6094 3.36818 14.535 3.38943V3.37881Z" fill="#1E1E1E"/>
    <path d="M13.6846 7.55437C13.1852 7.76687 12.7708 7.94749 12.7814 7.95812C12.7814 7.97937 13.1958 7.80937 13.7058 7.59687C14.2052 7.38437 14.6196 7.19312 14.609 7.17187C14.609 7.15062 14.1946 7.33124 13.6952 7.55437H13.6846Z" fill="#1E1E1E"/>
    <path d="M13.802 11.4006C13.3664 11.645 13.0264 11.8469 13.0264 11.8575C13.0264 11.8681 13.3876 11.6769 13.8126 11.4325C14.2482 11.1881 14.5989 10.9969 14.5882 10.9863C14.5882 10.9756 14.227 11.1669 13.7914 11.4006H13.802Z" fill="#1E1E1E"/>
    <path d="M14.0669 5.78022C13.8757 5.84397 13.7057 5.88646 13.7163 5.90771C13.7163 5.91834 13.8863 5.87584 14.0775 5.82272C14.2688 5.75897 14.4282 5.70584 14.4282 5.69522C14.4282 5.68459 14.2688 5.73771 14.0669 5.79084V5.78022Z" fill="#1E1E1E"/>
    <path d="M14.0035 8.92513C14.216 8.86138 14.386 8.79763 14.386 8.78701C14.386 8.77638 14.2054 8.8295 13.9929 8.89325C13.7804 8.957 13.6104 9.01013 13.6104 9.02075C13.6104 9.03138 13.791 8.98888 14.0035 8.92513Z" fill="#1E1E1E"/>
    <path d="M14.0146 2.25269C14.0146 2.25269 13.4621 2.34831 12.7714 2.49706C12.0914 2.63519 11.5283 2.74144 11.5283 2.76269C11.5283 2.77331 12.0914 2.66706 12.7714 2.52894C13.4514 2.39081 14.0146 2.27394 14.0039 2.25269H14.0146Z" fill="#1E1E1E"/>
    <path d="M13.9827 13.6746C13.9827 13.6746 13.3239 13.8658 12.5164 14.1314C11.7089 14.3971 11.0608 14.6308 11.0714 14.6414C11.0714 14.6627 11.7302 14.4396 12.527 14.1739C13.3345 13.9083 13.9827 13.6958 13.972 13.6746H13.9827Z" fill="#1E1E1E"/>
    <path d="M12.5057 7.65003C12.5057 7.65003 12.8457 7.55441 13.2495 7.40566C13.6532 7.25691 13.9826 7.11878 13.972 7.10816C13.9507 7.07628 13.5789 7.18253 13.2282 7.36316C12.8457 7.56503 12.4951 7.62878 12.4951 7.65003H12.5057Z" fill="#1E1E1E"/>
    <path d="M13.7588 10.9119C13.7588 10.9119 13.3551 11.0925 12.8557 11.3262C12.367 11.5706 11.9632 11.7725 11.9738 11.7831C11.9738 11.7937 12.3776 11.6025 12.877 11.3581C13.3657 11.1137 13.7695 10.9225 13.7695 10.9119H13.7588Z" fill="#1E1E1E"/>
    <path d="M12.9836 5.69518C12.6436 5.7908 12.3779 5.86518 12.3779 5.88643C12.3779 5.89705 12.6542 5.8333 12.9942 5.72705C13.3342 5.63143 13.5998 5.54643 13.5998 5.52518C13.5998 5.51455 13.3236 5.58893 12.9836 5.69518Z" fill="#1E1E1E"/>
    <path d="M13.5145 3.54896C13.5145 3.54896 13.1957 3.63396 12.792 3.75083C12.3988 3.86771 12.0801 3.96333 12.0801 3.98458C12.0801 3.99521 12.4095 3.91021 12.8026 3.78271C13.1957 3.66583 13.5145 3.55958 13.5145 3.53833V3.54896Z" fill="#1E1E1E"/>
    <path d="M13.047 13.4619C13.047 13.4619 12.6007 13.5788 12.0589 13.77C11.517 13.9613 11.0814 14.1207 11.092 14.1419C11.092 14.1632 11.5382 14.0038 12.0695 13.8232C12.6114 13.6319 13.047 13.4938 13.0364 13.4619H13.047Z" fill="#1E1E1E"/>
    <path d="M12.5688 1.75326C12.7388 1.72138 12.8875 1.70013 12.8875 1.67888C12.8875 1.66826 12.7388 1.67888 12.5688 1.72138C12.3988 1.75326 12.25 1.77451 12.25 1.78513C12.25 1.79576 12.3988 1.78513 12.5688 1.75326Z" fill="#1E1E1E"/>
    <path d="M12.8455 5.58887C12.8455 5.58887 12.5587 5.65262 12.2187 5.74824C11.868 5.84387 11.5918 5.91824 11.5918 5.92887C11.5918 5.93949 11.8787 5.87574 12.2293 5.78012C12.5799 5.68449 12.8562 5.59949 12.8562 5.58887H12.8455Z" fill="#1E1E1E"/>
    <path d="M11.8782 14.9281C11.4319 15.0769 11.0707 15.215 11.0813 15.2363C11.0813 15.2681 11.4532 15.1406 11.8994 14.9919C12.3457 14.8431 12.7069 14.7263 12.6963 14.6944C12.6963 14.6625 12.3244 14.7688 11.8782 14.9175V14.9281Z" fill="#1E1E1E"/>
    <path d="M12.208 4.26064C12.208 4.26064 12.123 4.29252 12.123 4.30314C12.123 4.31377 12.1655 4.30314 12.2187 4.30314C12.2612 4.28189 12.3037 4.27127 12.293 4.25002C12.293 4.23939 12.2505 4.25002 12.208 4.27127V4.26064Z" fill="#1E1E1E"/>
    <path d="M12.091 2.38013C12.091 2.38013 11.9741 2.40138 11.7935 2.43325C11.6129 2.47575 11.3685 2.52888 11.0816 2.582C10.8054 2.63513 10.5504 2.67763 10.3698 2.69888C10.1891 2.73075 10.0723 2.74138 10.0723 2.752C10.0723 2.752 10.1891 2.752 10.3698 2.73075C10.5504 2.7095 10.8054 2.667 11.0816 2.61388C11.3579 2.56075 11.6129 2.50763 11.7935 2.46513C11.9741 2.42263 12.0804 2.39075 12.0804 2.38013H12.091Z" fill="#1E1E1E"/>
    <path d="M11.368 9.7113C11.368 9.7113 11.4637 9.7113 11.5699 9.69005C11.6762 9.6688 11.7718 9.63692 11.7612 9.6263C11.7612 9.61567 11.6655 9.6263 11.5593 9.65817C11.453 9.67942 11.3574 9.70067 11.3574 9.7113H11.368Z" fill="#1E1E1E"/>
    <path d="M11.5176 9.63688C11.5176 9.63688 11.5707 9.63688 11.6345 9.63688C11.6982 9.61563 11.7407 9.60501 11.7407 9.58376C11.7407 9.57313 11.6876 9.58376 11.6238 9.60501C11.5601 9.62626 11.5176 9.62626 11.5176 9.64751V9.63688Z" fill="#1E1E1E"/>
    <path d="M4.63184 7.50129C4.63184 7.50129 6.21496 7.76691 8.16996 8.06441C10.125 8.36191 11.7187 8.59566 11.7187 8.57441C11.7187 8.56379 10.1356 8.31941 8.18059 8.02191C6.22559 7.72441 4.63184 7.48004 4.63184 7.50129Z" fill="#1E1E1E"/>
    <path d="M6.64062 11.5495C6.64062 11.5495 7.76688 11.7726 9.16938 12.017C10.5719 12.2613 11.7088 12.4526 11.7088 12.442C11.7088 12.4313 10.5719 12.2295 9.18 11.9851C7.7775 11.7407 6.65125 11.5388 6.64062 11.5495Z" fill="#1E1E1E"/>
    <path d="M10.4975 2.87953C10.2744 2.92203 10.0938 2.94328 10.0938 2.96453C10.0938 2.97515 10.2744 2.96453 10.4975 2.9114C10.7206 2.8689 10.9013 2.83703 10.9013 2.81578C10.9013 2.80515 10.7206 2.83703 10.4975 2.87953Z" fill="#1E1E1E"/>
    <path d="M2.28418 5.32331C2.28418 5.32331 3.83543 5.61018 5.74793 5.92893C7.66043 6.24768 9.21168 6.50268 9.21168 6.49206C9.21168 6.48143 7.66043 6.21581 5.74793 5.89706C3.83543 5.57831 2.28418 5.31268 2.28418 5.32331Z" fill="#1E1E1E"/>
    <path d="M1.56152 10.5081C1.56152 10.5081 3.11277 10.795 5.02527 11.1137C6.93777 11.4325 8.48902 11.6875 8.48902 11.6769C8.48902 11.6662 6.93777 11.4006 5.02527 11.0819C3.11277 10.7631 1.56152 10.4975 1.56152 10.5081Z" fill="#1E1E1E"/>
    <path d="M7.54371 11.3158C7.54371 11.3158 5.99246 11.0395 4.07996 10.7208C2.16746 10.402 0.616211 10.1364 0.616211 10.147C0.616211 10.1577 2.16746 10.4339 4.07996 10.7527C5.99246 11.0714 7.54371 11.3264 7.54371 11.3158Z" fill="#1E1E1E"/>
    <path d="M4.78125 5.24883C4.78125 5.24883 5.30188 5.35508 5.93938 5.47196C6.57688 5.57821 7.0975 5.66321 7.0975 5.64196C7.0975 5.63133 6.57688 5.54633 5.93938 5.42946C5.30188 5.32321 4.78125 5.22758 4.78125 5.24883Z" fill="#1E1E1E"/>
    <path d="M3.84641 6.95959C5.13203 7.15084 6.17328 7.29959 6.17328 7.27834C6.17328 7.26772 5.13203 7.10834 3.84641 6.92772C2.56078 6.73647 1.51953 6.57709 1.51953 6.59834C1.51953 6.60897 2.56078 6.76834 3.84641 6.95959Z" fill="#1E1E1E"/>
    <path d="M4.49367 5.61001C5.3968 5.76939 6.12992 5.88626 6.12992 5.87564C6.12992 5.86501 5.3968 5.73751 4.49367 5.57814C3.59055 5.41876 2.85742 5.29126 2.85742 5.30189C2.85742 5.31251 3.57992 5.45064 4.48305 5.61001H4.49367Z" fill="#1E1E1E"/>
    <path d="M2.85805 10.4232C3.76117 10.5932 4.48367 10.7207 4.48367 10.7101C4.48367 10.6995 3.76117 10.5613 2.85805 10.3913C1.95492 10.2213 1.23242 10.0832 1.23242 10.1045C1.23242 10.1151 1.95492 10.2638 2.85805 10.4338V10.4232Z" fill="#1E1E1E"/>
    <path d="M3.50633 7.10818C3.50633 7.10818 3.03883 7.02318 2.46508 6.93818C1.89133 6.85318 1.42383 6.7788 1.42383 6.80005C1.42383 6.81068 1.89133 6.89568 2.46508 6.97005C3.03883 7.04443 3.50633 7.1188 3.51695 7.09755L3.50633 7.10818Z" fill="#1E1E1E"/>
    <path d="M12.0068 10.3382C12.06 10.5507 12.0387 10.71 12.0281 10.7738L11.8793 10.6038C11.8793 10.6038 11.8793 10.6038 11.8687 10.6038C11.8687 10.6038 11.8687 10.6038 11.8581 10.6038L11.6775 10.8907C11.6775 10.7419 11.6243 10.3063 11.4756 10.1788C11.5181 10.1575 11.6775 10.115 11.8156 10.0832C11.8156 10.0832 11.9325 10.0619 12.0068 10.3275V10.3382Z" fill="#EF432B"/>
    <path d="M11.6452 10.9438C11.6452 10.9438 11.624 10.3276 11.4434 10.2001C11.4434 10.2001 11.4434 10.1895 11.4434 10.1788C11.4434 10.1682 11.4434 10.1363 11.8152 10.062C11.8152 10.062 11.964 10.0301 12.049 10.3382C12.1234 10.6251 12.0702 10.8163 12.0596 10.827C12.0596 10.827 12.0596 10.827 12.049 10.8376H12.0384L11.8896 10.657L11.6984 10.9651C11.6984 10.9651 11.6984 10.9651 11.6877 10.9651C11.6877 10.9651 11.6771 10.9651 11.6771 10.9438H11.6452ZM11.4752 10.1788C11.6346 10.3063 11.6665 10.7313 11.6771 10.8907L11.8577 10.6038C11.8577 10.6038 11.8577 10.6038 11.8684 10.6038C11.8684 10.6038 11.8684 10.6038 11.879 10.6038L12.0277 10.7738C12.0384 10.7101 12.0596 10.5507 12.0065 10.3382C11.9321 10.062 11.8152 10.0938 11.8152 10.0938C11.6771 10.1257 11.5177 10.1682 11.4752 10.1895V10.1788Z" fill="#181919"/>
    <path d="M12.6854 4.10133C12.6004 5.16383 12.0904 14.4607 11.9629 16.7238C11.9629 16.7345 11.9098 16.7238 11.8991 16.7132C11.8354 16.692 11.7929 16.7026 11.6973 16.692L12.4304 4.15445C12.4304 4.15445 12.4198 4.11195 12.3985 4.11195V4.08008C12.4835 4.08008 12.5579 4.08008 12.611 4.08008C12.6216 4.08008 12.6854 4.08008 12.6748 4.0907L12.6854 4.10133Z" fill="#0047FF"/>
    <path d="M12.4098 4.08008V4.11195C12.3355 4.11195 12.1867 4.12258 12.0273 4.12258V4.08008C12.0911 4.08008 12.2611 4.08008 12.4205 4.08008H12.4098Z" fill="#EA7D24"/>
    <path d="M12.3563 4.19678C12.3563 4.19678 12.3776 4.19678 12.3776 4.21803C12.3351 4.8024 11.6445 16.6812 11.6338 16.6918C11.6232 16.6918 11.432 16.6812 11.2832 16.7662L12.027 4.23928C12.1332 4.21803 12.282 4.21803 12.367 4.2074L12.3563 4.19678Z" fill="#EAEADF"/>
    <path d="M11.9319 3.90993C11.9319 3.90993 11.1456 16.7449 11.1562 16.8831C11.135 16.8937 3.63375 16.0649 3.63375 16.0649C3.55938 16.0649 3.5275 16.0012 3.53812 15.9162C3.92063 11.0181 4.05875 3.64431 4.09062 3.60181L11.9319 3.88868V3.90993Z" fill="#0047FF"/>
    <path d="M12.7708 3.95248C12.622 3.95248 12.1333 3.95248 12.0377 3.94186C12.0377 3.94186 12.0377 3.86748 12.0377 3.80373C12.0377 3.78248 12.027 3.77186 12.0058 3.76123C11.4533 3.71873 4.48328 3.55936 4.00516 3.49561C3.99453 3.49561 3.98391 3.49561 3.98391 3.51686C3.98391 3.98436 3.78203 11.2837 3.41016 16.0437C3.41016 16.1606 3.45266 16.1712 3.55891 16.1819C3.55891 16.1819 10.6458 16.9469 11.2195 16.9894C11.2408 16.9894 11.262 16.9787 11.262 16.9575C11.262 16.9044 11.262 16.8406 11.262 16.8406C11.4214 16.7981 11.4958 16.7662 11.6445 16.7556L12.0164 16.83C12.0377 16.83 12.0483 16.7981 12.0483 16.745C12.1652 14.5137 12.7602 4.72811 12.8027 3.99498C12.8027 3.97373 12.7814 3.95248 12.7602 3.95248H12.7708ZM11.1452 16.8937L3.62266 16.0756C3.54828 16.0756 3.51641 16.0119 3.52703 15.9269C3.90953 11.0287 4.04766 3.65498 4.07953 3.61248L11.9208 3.89936C11.9208 3.89936 11.1345 16.7344 11.1452 16.8725V16.8937ZM11.6233 16.6812C11.6233 16.6812 11.5489 16.6812 11.4533 16.6919C11.4639 16.6919 11.4852 16.3625 11.517 15.9481C11.5383 15.5337 11.5702 15.2044 11.5489 15.2044C11.5383 15.2044 11.5064 15.5337 11.4745 15.9481C11.4533 16.3519 11.432 16.6919 11.4427 16.6919C11.4108 16.6919 11.3789 16.6919 11.3577 16.7131C11.3683 16.6281 11.3789 16.4794 11.3895 16.2881C11.4108 15.98 11.432 15.7356 11.4214 15.7356C11.4002 15.7356 11.3789 15.98 11.347 16.2881C11.3258 16.49 11.3258 16.6387 11.3258 16.7131C11.3045 16.7131 11.2833 16.7344 11.262 16.745L12.0058 4.21811C12.0058 4.21811 12.0377 4.21811 12.0483 4.21811C12.0377 4.35623 12.027 4.70686 12.0058 5.03623C11.9845 5.49311 11.9633 5.86498 11.9845 5.86498C11.9952 5.86498 12.0164 5.49311 12.0483 5.03623C12.0695 4.62186 12.0908 4.28186 12.0908 4.21811C12.1227 4.21811 12.1545 4.21811 12.1864 4.21811C12.1652 4.40936 12.1333 5.02561 12.0908 5.58873C12.0377 6.31123 11.9952 6.89561 12.0058 6.89561C12.0164 6.89561 12.0695 6.31123 12.1227 5.58873C12.1758 4.94061 12.2289 4.33498 12.2289 4.21811C12.2395 4.21811 12.2608 4.21811 12.2714 4.21811C12.2395 4.57936 12.1545 6.03498 12.0483 7.66061C11.9208 9.56248 11.8358 11.1031 11.8464 11.1031C11.857 11.1031 11.9633 9.56248 12.0802 7.66061C12.2077 5.75873 12.3033 4.21811 12.2927 4.21811C12.3139 4.21811 12.3352 4.21811 12.3564 4.21811C12.3564 4.21811 12.3777 4.21811 12.3777 4.23936C12.3352 4.82373 11.6445 16.7025 11.6339 16.7131L11.6233 16.6812ZM11.9739 16.7237C11.9739 16.7237 11.9208 16.7237 11.9102 16.7131C11.8464 16.6919 11.8039 16.7025 11.7083 16.6919L12.4414 4.15436C12.4414 4.15436 12.4308 4.11186 12.4095 4.11186C12.3352 4.11186 12.1864 4.12248 12.027 4.12248V4.07998C12.0908 4.07998 12.2608 4.07998 12.4202 4.07998C12.5052 4.07998 12.5795 4.07998 12.6327 4.07998C12.6433 4.07998 12.707 4.07998 12.6964 4.09061C12.6114 5.15311 12.1014 14.45 11.9739 16.7131V16.7237Z" fill="#1E1E1E"/>
    <path d="M11.9104 8.31934C11.9104 8.31934 11.836 9.15871 11.7723 10.2106C11.7085 11.2518 11.6554 12.1018 11.6766 12.1018C11.6873 12.1018 11.7404 11.2518 11.8041 10.2106C11.8679 9.16934 11.9316 8.31934 11.9104 8.31934Z" fill="#1E1E1E"/>
    <path d="M11.7825 13.228C11.7825 13.228 11.7187 13.9293 11.655 14.8005C11.6019 15.6718 11.5594 16.373 11.57 16.373C11.5806 16.373 11.6337 15.6718 11.6869 14.8005C11.74 13.9293 11.7931 13.228 11.7825 13.228Z" fill="#1E1E1E"/>
  </g>
  <defs>
    <clipPath id="clip0_1108_184342">
      <rect width="17" height="17" fill="white"/>
    </clipPath>
  </defs>
</svg>